G04 #@! TF.GenerationSoftware,KiCad,Pcbnew,(5.0.0-rc2-dev-647-g0f5eb421b)*
G04 #@! TF.CreationDate,2018-05-07T01:31:26+02:00*
G04 #@! TF.ProjectId,monochromator,6D6F6E6F6368726F6D61746F722E6B69,rev?*
G04 #@! TF.SameCoordinates,Original*
G04 #@! TF.FileFunction,Legend,Top*
G04 #@! TF.FilePolarity,Positive*
%FSLAX46Y46*%
G04 Gerber Fmt 4.6, Leading zero omitted, Abs format (unit mm)*
G04 Created by KiCad (PCBNEW (5.0.0-rc2-dev-647-g0f5eb421b)) date 05/07/18 01:31:26*
%MOMM*%
%LPD*%
G01*
G04 APERTURE LIST*
%ADD10C,0.120000*%
%ADD11C,0.150000*%
G04 APERTURE END LIST*
D10*
X162550000Y-100430000D02*
X162550000Y-97770000D01*
X154870000Y-100430000D02*
X162550000Y-100430000D01*
X154870000Y-97770000D02*
X162550000Y-97770000D01*
X154870000Y-100430000D02*
X154870000Y-97770000D01*
X153600000Y-100430000D02*
X152270000Y-100430000D01*
X152270000Y-100430000D02*
X152270000Y-99100000D01*
X181140000Y-82100000D02*
X181140000Y-83900000D01*
X184360000Y-83900000D02*
X184360000Y-81450000D01*
X168270000Y-95710000D02*
X170930000Y-95710000D01*
X168270000Y-90570000D02*
X168270000Y-95710000D01*
X170930000Y-90570000D02*
X170930000Y-95710000D01*
X168270000Y-90570000D02*
X170930000Y-90570000D01*
X168270000Y-89300000D02*
X168270000Y-87970000D01*
X168270000Y-87970000D02*
X169600000Y-87970000D01*
X175150000Y-61655000D02*
X190930000Y-61655000D01*
X190930000Y-61655000D02*
X190930000Y-71005000D01*
X190930000Y-71005000D02*
X175150000Y-71005000D01*
X175150000Y-71005000D02*
X175150000Y-61655000D01*
X174900000Y-71255000D02*
X177440000Y-71255000D01*
X174900000Y-71255000D02*
X174900000Y-68715000D01*
X168790000Y-66050000D02*
X168790000Y-68750000D01*
X170710000Y-66050000D02*
X168790000Y-66050000D01*
X170710000Y-68750000D02*
X170710000Y-66050000D01*
X173210000Y-68750000D02*
X173210000Y-66050000D01*
X173210000Y-66050000D02*
X171290000Y-66050000D01*
X171290000Y-66050000D02*
X171290000Y-68750000D01*
X153368000Y-82900000D02*
X153788000Y-82900000D01*
X160488000Y-82900000D02*
X160068000Y-82900000D01*
X160488000Y-90020000D02*
X160068000Y-90020000D01*
X153368000Y-90020000D02*
X153368000Y-89600000D01*
X160488000Y-82900000D02*
X160488000Y-83320000D01*
X153368000Y-82900000D02*
X153368000Y-83320000D01*
X153788000Y-90020000D02*
X153788000Y-91400000D01*
X153368000Y-90020000D02*
X153788000Y-90020000D01*
X160488000Y-90020000D02*
X160488000Y-89600000D01*
X140930000Y-74100000D02*
X140930000Y-94680000D01*
X130770000Y-76770000D02*
X130770000Y-94680000D01*
X129500000Y-74100000D02*
X128100000Y-74100000D01*
X128100000Y-74100000D02*
X128100000Y-75500000D01*
X130770000Y-74100000D02*
X130770000Y-76770000D01*
X130770000Y-76770000D02*
X128100000Y-76770000D01*
X128100000Y-76770000D02*
X128100000Y-94680000D01*
X128100000Y-94680000D02*
X143600000Y-94680000D01*
X143600000Y-94680000D02*
X143600000Y-74100000D01*
X143600000Y-74100000D02*
X130770000Y-74100000D01*
X177060000Y-101010000D02*
X170940000Y-101010000D01*
X170940000Y-101010000D02*
X170940000Y-97390000D01*
X170940000Y-97390000D02*
X177060000Y-97390000D01*
X177060000Y-97390000D02*
X177060000Y-101010000D01*
X147830000Y-95380000D02*
X145170000Y-95380000D01*
X147830000Y-97980000D02*
X147830000Y-95380000D01*
X145170000Y-97980000D02*
X145170000Y-95380000D01*
X147830000Y-97980000D02*
X145170000Y-97980000D01*
X147830000Y-99250000D02*
X147830000Y-100580000D01*
X147830000Y-100580000D02*
X146500000Y-100580000D01*
D11*
X182875000Y-87875000D02*
X183625000Y-87875000D01*
X188125000Y-93125000D02*
X187375000Y-93125000D01*
X188125000Y-87875000D02*
X187375000Y-87875000D01*
X182875000Y-93125000D02*
X182875000Y-92375000D01*
X188125000Y-93125000D02*
X188125000Y-92375000D01*
X188125000Y-87875000D02*
X188125000Y-88625000D01*
X182875000Y-87875000D02*
X182875000Y-88625000D01*
D10*
X139970000Y-93200000D02*
G75*
G03X139970000Y-93200000I-4120000J0D01*
G01*
X135850000Y-89120000D02*
X135850000Y-97280000D01*
X135890000Y-89120000D02*
X135890000Y-97280000D01*
X135930000Y-89120000D02*
X135930000Y-97280000D01*
X135970000Y-89121000D02*
X135970000Y-97279000D01*
X136010000Y-89123000D02*
X136010000Y-97277000D01*
X136050000Y-89124000D02*
X136050000Y-97276000D01*
X136090000Y-89126000D02*
X136090000Y-97274000D01*
X136130000Y-89129000D02*
X136130000Y-97271000D01*
X136170000Y-89132000D02*
X136170000Y-97268000D01*
X136210000Y-89135000D02*
X136210000Y-97265000D01*
X136250000Y-89139000D02*
X136250000Y-97261000D01*
X136290000Y-89143000D02*
X136290000Y-97257000D01*
X136330000Y-89148000D02*
X136330000Y-97252000D01*
X136370000Y-89152000D02*
X136370000Y-97248000D01*
X136410000Y-89158000D02*
X136410000Y-97242000D01*
X136450000Y-89163000D02*
X136450000Y-97237000D01*
X136490000Y-89170000D02*
X136490000Y-97230000D01*
X136530000Y-89176000D02*
X136530000Y-97224000D01*
X136571000Y-89183000D02*
X136571000Y-92160000D01*
X136571000Y-94240000D02*
X136571000Y-97217000D01*
X136611000Y-89190000D02*
X136611000Y-92160000D01*
X136611000Y-94240000D02*
X136611000Y-97210000D01*
X136651000Y-89198000D02*
X136651000Y-92160000D01*
X136651000Y-94240000D02*
X136651000Y-97202000D01*
X136691000Y-89206000D02*
X136691000Y-92160000D01*
X136691000Y-94240000D02*
X136691000Y-97194000D01*
X136731000Y-89215000D02*
X136731000Y-92160000D01*
X136731000Y-94240000D02*
X136731000Y-97185000D01*
X136771000Y-89224000D02*
X136771000Y-92160000D01*
X136771000Y-94240000D02*
X136771000Y-97176000D01*
X136811000Y-89233000D02*
X136811000Y-92160000D01*
X136811000Y-94240000D02*
X136811000Y-97167000D01*
X136851000Y-89243000D02*
X136851000Y-92160000D01*
X136851000Y-94240000D02*
X136851000Y-97157000D01*
X136891000Y-89253000D02*
X136891000Y-92160000D01*
X136891000Y-94240000D02*
X136891000Y-97147000D01*
X136931000Y-89264000D02*
X136931000Y-92160000D01*
X136931000Y-94240000D02*
X136931000Y-97136000D01*
X136971000Y-89275000D02*
X136971000Y-92160000D01*
X136971000Y-94240000D02*
X136971000Y-97125000D01*
X137011000Y-89286000D02*
X137011000Y-92160000D01*
X137011000Y-94240000D02*
X137011000Y-97114000D01*
X137051000Y-89298000D02*
X137051000Y-92160000D01*
X137051000Y-94240000D02*
X137051000Y-97102000D01*
X137091000Y-89311000D02*
X137091000Y-92160000D01*
X137091000Y-94240000D02*
X137091000Y-97089000D01*
X137131000Y-89323000D02*
X137131000Y-92160000D01*
X137131000Y-94240000D02*
X137131000Y-97077000D01*
X137171000Y-89337000D02*
X137171000Y-92160000D01*
X137171000Y-94240000D02*
X137171000Y-97063000D01*
X137211000Y-89350000D02*
X137211000Y-92160000D01*
X137211000Y-94240000D02*
X137211000Y-97050000D01*
X137251000Y-89365000D02*
X137251000Y-92160000D01*
X137251000Y-94240000D02*
X137251000Y-97035000D01*
X137291000Y-89379000D02*
X137291000Y-92160000D01*
X137291000Y-94240000D02*
X137291000Y-97021000D01*
X137331000Y-89395000D02*
X137331000Y-92160000D01*
X137331000Y-94240000D02*
X137331000Y-97005000D01*
X137371000Y-89410000D02*
X137371000Y-92160000D01*
X137371000Y-94240000D02*
X137371000Y-96990000D01*
X137411000Y-89426000D02*
X137411000Y-92160000D01*
X137411000Y-94240000D02*
X137411000Y-96974000D01*
X137451000Y-89443000D02*
X137451000Y-92160000D01*
X137451000Y-94240000D02*
X137451000Y-96957000D01*
X137491000Y-89460000D02*
X137491000Y-92160000D01*
X137491000Y-94240000D02*
X137491000Y-96940000D01*
X137531000Y-89478000D02*
X137531000Y-92160000D01*
X137531000Y-94240000D02*
X137531000Y-96922000D01*
X137571000Y-89496000D02*
X137571000Y-92160000D01*
X137571000Y-94240000D02*
X137571000Y-96904000D01*
X137611000Y-89514000D02*
X137611000Y-92160000D01*
X137611000Y-94240000D02*
X137611000Y-96886000D01*
X137651000Y-89534000D02*
X137651000Y-92160000D01*
X137651000Y-94240000D02*
X137651000Y-96866000D01*
X137691000Y-89553000D02*
X137691000Y-92160000D01*
X137691000Y-94240000D02*
X137691000Y-96847000D01*
X137731000Y-89573000D02*
X137731000Y-92160000D01*
X137731000Y-94240000D02*
X137731000Y-96827000D01*
X137771000Y-89594000D02*
X137771000Y-92160000D01*
X137771000Y-94240000D02*
X137771000Y-96806000D01*
X137811000Y-89616000D02*
X137811000Y-92160000D01*
X137811000Y-94240000D02*
X137811000Y-96784000D01*
X137851000Y-89638000D02*
X137851000Y-92160000D01*
X137851000Y-94240000D02*
X137851000Y-96762000D01*
X137891000Y-89660000D02*
X137891000Y-92160000D01*
X137891000Y-94240000D02*
X137891000Y-96740000D01*
X137931000Y-89683000D02*
X137931000Y-92160000D01*
X137931000Y-94240000D02*
X137931000Y-96717000D01*
X137971000Y-89707000D02*
X137971000Y-92160000D01*
X137971000Y-94240000D02*
X137971000Y-96693000D01*
X138011000Y-89731000D02*
X138011000Y-92160000D01*
X138011000Y-94240000D02*
X138011000Y-96669000D01*
X138051000Y-89756000D02*
X138051000Y-92160000D01*
X138051000Y-94240000D02*
X138051000Y-96644000D01*
X138091000Y-89782000D02*
X138091000Y-92160000D01*
X138091000Y-94240000D02*
X138091000Y-96618000D01*
X138131000Y-89808000D02*
X138131000Y-92160000D01*
X138131000Y-94240000D02*
X138131000Y-96592000D01*
X138171000Y-89835000D02*
X138171000Y-92160000D01*
X138171000Y-94240000D02*
X138171000Y-96565000D01*
X138211000Y-89862000D02*
X138211000Y-92160000D01*
X138211000Y-94240000D02*
X138211000Y-96538000D01*
X138251000Y-89891000D02*
X138251000Y-92160000D01*
X138251000Y-94240000D02*
X138251000Y-96509000D01*
X138291000Y-89920000D02*
X138291000Y-92160000D01*
X138291000Y-94240000D02*
X138291000Y-96480000D01*
X138331000Y-89950000D02*
X138331000Y-92160000D01*
X138331000Y-94240000D02*
X138331000Y-96450000D01*
X138371000Y-89980000D02*
X138371000Y-92160000D01*
X138371000Y-94240000D02*
X138371000Y-96420000D01*
X138411000Y-90011000D02*
X138411000Y-92160000D01*
X138411000Y-94240000D02*
X138411000Y-96389000D01*
X138451000Y-90044000D02*
X138451000Y-92160000D01*
X138451000Y-94240000D02*
X138451000Y-96356000D01*
X138491000Y-90076000D02*
X138491000Y-92160000D01*
X138491000Y-94240000D02*
X138491000Y-96324000D01*
X138531000Y-90110000D02*
X138531000Y-92160000D01*
X138531000Y-94240000D02*
X138531000Y-96290000D01*
X138571000Y-90145000D02*
X138571000Y-92160000D01*
X138571000Y-94240000D02*
X138571000Y-96255000D01*
X138611000Y-90181000D02*
X138611000Y-92160000D01*
X138611000Y-94240000D02*
X138611000Y-96219000D01*
X138651000Y-90217000D02*
X138651000Y-96183000D01*
X138691000Y-90255000D02*
X138691000Y-96145000D01*
X138731000Y-90293000D02*
X138731000Y-96107000D01*
X138771000Y-90333000D02*
X138771000Y-96067000D01*
X138811000Y-90374000D02*
X138811000Y-96026000D01*
X138851000Y-90416000D02*
X138851000Y-95984000D01*
X138891000Y-90459000D02*
X138891000Y-95941000D01*
X138931000Y-90503000D02*
X138931000Y-95897000D01*
X138971000Y-90549000D02*
X138971000Y-95851000D01*
X139011000Y-90596000D02*
X139011000Y-95804000D01*
X139051000Y-90644000D02*
X139051000Y-95756000D01*
X139091000Y-90695000D02*
X139091000Y-95705000D01*
X139131000Y-90746000D02*
X139131000Y-95654000D01*
X139171000Y-90800000D02*
X139171000Y-95600000D01*
X139211000Y-90855000D02*
X139211000Y-95545000D01*
X139251000Y-90913000D02*
X139251000Y-95487000D01*
X139291000Y-90972000D02*
X139291000Y-95428000D01*
X139331000Y-91034000D02*
X139331000Y-95366000D01*
X139371000Y-91098000D02*
X139371000Y-95302000D01*
X139411000Y-91166000D02*
X139411000Y-95234000D01*
X139451000Y-91236000D02*
X139451000Y-95164000D01*
X139491000Y-91310000D02*
X139491000Y-95090000D01*
X139531000Y-91387000D02*
X139531000Y-95013000D01*
X139571000Y-91469000D02*
X139571000Y-94931000D01*
X139611000Y-91555000D02*
X139611000Y-94845000D01*
X139651000Y-91648000D02*
X139651000Y-94752000D01*
X139691000Y-91747000D02*
X139691000Y-94653000D01*
X139731000Y-91854000D02*
X139731000Y-94546000D01*
X139771000Y-91971000D02*
X139771000Y-94429000D01*
X139811000Y-92102000D02*
X139811000Y-94298000D01*
X139851000Y-92252000D02*
X139851000Y-94148000D01*
X139891000Y-92432000D02*
X139891000Y-93968000D01*
X139931000Y-92667000D02*
X139931000Y-93733000D01*
X131440302Y-90885000D02*
X132240302Y-90885000D01*
X131840302Y-90485000D02*
X131840302Y-91285000D01*
X107534756Y-84316682D02*
G75*
G02X107680000Y-85000000I-1534756J-683318D01*
G01*
X105316958Y-83464574D02*
G75*
G02X106684000Y-83465000I683042J-1535426D01*
G01*
X104464574Y-85683042D02*
G75*
G02X104465000Y-84316000I1535426J683042D01*
G01*
X106683042Y-86535426D02*
G75*
G02X105316000Y-86535000I-683042J1535426D01*
G01*
X107680253Y-84971195D02*
G75*
G02X107535000Y-85684000I-1680253J-28805D01*
G01*
X107680000Y-80000000D02*
G75*
G03X107680000Y-80000000I-1680000J0D01*
G01*
X110100000Y-87560000D02*
X110100000Y-77440000D01*
X108600000Y-87560000D02*
X108600000Y-77440000D01*
X103699000Y-87560000D02*
X103699000Y-77440000D01*
X100739000Y-87560000D02*
X100739000Y-77440000D01*
X110660000Y-87560000D02*
X110660000Y-77440000D01*
X100739000Y-87560000D02*
X110660000Y-87560000D01*
X100739000Y-77440000D02*
X110660000Y-77440000D01*
X104931000Y-78725000D02*
X104977000Y-78772000D01*
X107239000Y-81034000D02*
X107274000Y-81069000D01*
X104725000Y-78930000D02*
X104761000Y-78965000D01*
X107023000Y-81227000D02*
X107069000Y-81274000D01*
X110160000Y-87800000D02*
X110900000Y-87800000D01*
X110900000Y-87800000D02*
X110900000Y-87300000D01*
X132933318Y-67534756D02*
G75*
G02X132250000Y-67680000I-683318J1534756D01*
G01*
X133785426Y-65316958D02*
G75*
G02X133785000Y-66684000I-1535426J-683042D01*
G01*
X131566958Y-64464574D02*
G75*
G02X132934000Y-64465000I683042J-1535426D01*
G01*
X130714574Y-66683042D02*
G75*
G02X130715000Y-65316000I1535426J683042D01*
G01*
X132278805Y-67680253D02*
G75*
G02X131566000Y-67535000I-28805J1680253D01*
G01*
X138930000Y-66000000D02*
G75*
G03X138930000Y-66000000I-1680000J0D01*
G01*
X143930000Y-66000000D02*
G75*
G03X143930000Y-66000000I-1680000J0D01*
G01*
X148930000Y-66000000D02*
G75*
G03X148930000Y-66000000I-1680000J0D01*
G01*
X153930000Y-66000000D02*
G75*
G03X153930000Y-66000000I-1680000J0D01*
G01*
X158930000Y-66000000D02*
G75*
G03X158930000Y-66000000I-1680000J0D01*
G01*
X163930000Y-66000000D02*
G75*
G03X163930000Y-66000000I-1680000J0D01*
G01*
X129690000Y-70100000D02*
X164810000Y-70100000D01*
X129690000Y-68600000D02*
X164810000Y-68600000D01*
X129690000Y-63699000D02*
X164810000Y-63699000D01*
X129690000Y-60739000D02*
X164810000Y-60739000D01*
X129690000Y-70660000D02*
X164810000Y-70660000D01*
X129690000Y-60739000D02*
X129690000Y-70660000D01*
X164810000Y-60739000D02*
X164810000Y-70660000D01*
X138525000Y-64931000D02*
X138478000Y-64977000D01*
X136216000Y-67239000D02*
X136181000Y-67274000D01*
X138320000Y-64725000D02*
X138285000Y-64761000D01*
X136023000Y-67023000D02*
X135976000Y-67069000D01*
X143525000Y-64931000D02*
X143478000Y-64977000D01*
X141216000Y-67239000D02*
X141181000Y-67274000D01*
X143320000Y-64725000D02*
X143285000Y-64761000D01*
X141023000Y-67023000D02*
X140976000Y-67069000D01*
X148525000Y-64931000D02*
X148478000Y-64977000D01*
X146216000Y-67239000D02*
X146181000Y-67274000D01*
X148320000Y-64725000D02*
X148285000Y-64761000D01*
X146023000Y-67023000D02*
X145976000Y-67069000D01*
X153525000Y-64931000D02*
X153478000Y-64977000D01*
X151216000Y-67239000D02*
X151181000Y-67274000D01*
X153320000Y-64725000D02*
X153285000Y-64761000D01*
X151023000Y-67023000D02*
X150976000Y-67069000D01*
X158525000Y-64931000D02*
X158478000Y-64977000D01*
X156216000Y-67239000D02*
X156181000Y-67274000D01*
X158320000Y-64725000D02*
X158285000Y-64761000D01*
X156023000Y-67023000D02*
X155976000Y-67069000D01*
X163525000Y-64931000D02*
X163478000Y-64977000D01*
X161216000Y-67239000D02*
X161181000Y-67274000D01*
X163320000Y-64725000D02*
X163285000Y-64761000D01*
X161023000Y-67023000D02*
X160976000Y-67069000D01*
X129450000Y-70160000D02*
X129450000Y-70900000D01*
X129450000Y-70900000D02*
X129950000Y-70900000D01*
X119190000Y-98700000D02*
X119190000Y-99700000D01*
X121010000Y-98700000D02*
X121010000Y-99700000D01*
X123610000Y-98700000D02*
X123610000Y-99700000D01*
X121790000Y-98700000D02*
X121790000Y-99700000D01*
X120650000Y-81590000D02*
X112580000Y-81590000D01*
X112580000Y-81590000D02*
X112580000Y-86410000D01*
X112580000Y-86410000D02*
X120650000Y-86410000D01*
X112300000Y-93150000D02*
X106900000Y-93150000D01*
X112300000Y-89850000D02*
X106900000Y-89850000D01*
X112300000Y-93150000D02*
X112300000Y-89850000D01*
X121750000Y-89700000D02*
X118450000Y-89700000D01*
X118450000Y-89700000D02*
X118450000Y-95100000D01*
X121750000Y-89700000D02*
X121750000Y-95100000D01*
X117300000Y-99200000D02*
X117300000Y-101500000D01*
X117300000Y-101500000D02*
X109900000Y-101500000D01*
X109900000Y-101500000D02*
X109900000Y-99200000D01*
X109900000Y-96400000D02*
X109900000Y-94100000D01*
X109900000Y-94100000D02*
X117300000Y-94100000D01*
X117300000Y-94100000D02*
X117300000Y-96400000D01*
X116209164Y-87296584D02*
X114409164Y-87296584D01*
X114409164Y-90516584D02*
X117359164Y-90516584D01*
D11*
X150722380Y-99433333D02*
X151436666Y-99433333D01*
X151579523Y-99480952D01*
X151674761Y-99576190D01*
X151722380Y-99719047D01*
X151722380Y-99814285D01*
X151055714Y-98528571D02*
X151722380Y-98528571D01*
X150674761Y-98766666D02*
X151389047Y-99004761D01*
X151389047Y-98385714D01*
X179652380Y-83861904D02*
X180461904Y-83861904D01*
X180557142Y-83814285D01*
X180604761Y-83766666D01*
X180652380Y-83671428D01*
X180652380Y-83480952D01*
X180604761Y-83385714D01*
X180557142Y-83338095D01*
X180461904Y-83290476D01*
X179652380Y-83290476D01*
X180652380Y-82290476D02*
X180652380Y-82861904D01*
X180652380Y-82576190D02*
X179652380Y-82576190D01*
X179795238Y-82671428D01*
X179890476Y-82766666D01*
X179938095Y-82861904D01*
X169266666Y-86422380D02*
X169266666Y-87136666D01*
X169219047Y-87279523D01*
X169123809Y-87374761D01*
X168980952Y-87422380D01*
X168885714Y-87422380D01*
X169695238Y-86517619D02*
X169742857Y-86470000D01*
X169838095Y-86422380D01*
X170076190Y-86422380D01*
X170171428Y-86470000D01*
X170219047Y-86517619D01*
X170266666Y-86612857D01*
X170266666Y-86708095D01*
X170219047Y-86850952D01*
X169647619Y-87422380D01*
X170266666Y-87422380D01*
X188157142Y-83166666D02*
X188204761Y-83214285D01*
X188252380Y-83357142D01*
X188252380Y-83452380D01*
X188204761Y-83595238D01*
X188109523Y-83690476D01*
X188014285Y-83738095D01*
X187823809Y-83785714D01*
X187680952Y-83785714D01*
X187490476Y-83738095D01*
X187395238Y-83690476D01*
X187300000Y-83595238D01*
X187252380Y-83452380D01*
X187252380Y-83357142D01*
X187300000Y-83214285D01*
X187347619Y-83166666D01*
X188252380Y-82214285D02*
X188252380Y-82785714D01*
X188252380Y-82500000D02*
X187252380Y-82500000D01*
X187395238Y-82595238D01*
X187490476Y-82690476D01*
X187538095Y-82785714D01*
X182666666Y-71852380D02*
X182666666Y-72566666D01*
X182619047Y-72709523D01*
X182523809Y-72804761D01*
X182380952Y-72852380D01*
X182285714Y-72852380D01*
X183047619Y-71852380D02*
X183666666Y-71852380D01*
X183333333Y-72233333D01*
X183476190Y-72233333D01*
X183571428Y-72280952D01*
X183619047Y-72328571D01*
X183666666Y-72423809D01*
X183666666Y-72661904D01*
X183619047Y-72757142D01*
X183571428Y-72804761D01*
X183476190Y-72852380D01*
X183190476Y-72852380D01*
X183095238Y-72804761D01*
X183047619Y-72757142D01*
X168452380Y-68438095D02*
X167452380Y-68438095D01*
X167452380Y-68200000D01*
X167500000Y-68057142D01*
X167595238Y-67961904D01*
X167690476Y-67914285D01*
X167880952Y-67866666D01*
X168023809Y-67866666D01*
X168214285Y-67914285D01*
X168309523Y-67961904D01*
X168404761Y-68057142D01*
X168452380Y-68200000D01*
X168452380Y-68438095D01*
X167547619Y-67485714D02*
X167500000Y-67438095D01*
X167452380Y-67342857D01*
X167452380Y-67104761D01*
X167500000Y-67009523D01*
X167547619Y-66961904D01*
X167642857Y-66914285D01*
X167738095Y-66914285D01*
X167880952Y-66961904D01*
X168452380Y-67533333D01*
X168452380Y-66914285D01*
X174652380Y-68238095D02*
X173652380Y-68238095D01*
X173652380Y-68000000D01*
X173700000Y-67857142D01*
X173795238Y-67761904D01*
X173890476Y-67714285D01*
X174080952Y-67666666D01*
X174223809Y-67666666D01*
X174414285Y-67714285D01*
X174509523Y-67761904D01*
X174604761Y-67857142D01*
X174652380Y-68000000D01*
X174652380Y-68238095D01*
X174652380Y-66714285D02*
X174652380Y-67285714D01*
X174652380Y-67000000D02*
X173652380Y-67000000D01*
X173795238Y-67095238D01*
X173890476Y-67190476D01*
X173938095Y-67285714D01*
X168452380Y-63666666D02*
X167976190Y-64000000D01*
X168452380Y-64238095D02*
X167452380Y-64238095D01*
X167452380Y-63857142D01*
X167500000Y-63761904D01*
X167547619Y-63714285D01*
X167642857Y-63666666D01*
X167785714Y-63666666D01*
X167880952Y-63714285D01*
X167928571Y-63761904D01*
X167976190Y-63857142D01*
X167976190Y-64238095D01*
X167452380Y-63333333D02*
X167452380Y-62714285D01*
X167833333Y-63047619D01*
X167833333Y-62904761D01*
X167880952Y-62809523D01*
X167928571Y-62761904D01*
X168023809Y-62714285D01*
X168261904Y-62714285D01*
X168357142Y-62761904D01*
X168404761Y-62809523D01*
X168452380Y-62904761D01*
X168452380Y-63190476D01*
X168404761Y-63285714D01*
X168357142Y-63333333D01*
X174652380Y-63466666D02*
X174176190Y-63800000D01*
X174652380Y-64038095D02*
X173652380Y-64038095D01*
X173652380Y-63657142D01*
X173700000Y-63561904D01*
X173747619Y-63514285D01*
X173842857Y-63466666D01*
X173985714Y-63466666D01*
X174080952Y-63514285D01*
X174128571Y-63561904D01*
X174176190Y-63657142D01*
X174176190Y-64038095D01*
X174652380Y-62514285D02*
X174652380Y-63085714D01*
X174652380Y-62800000D02*
X173652380Y-62800000D01*
X173795238Y-62895238D01*
X173890476Y-62990476D01*
X173938095Y-63085714D01*
X150380380Y-87221904D02*
X151189904Y-87221904D01*
X151285142Y-87174285D01*
X151332761Y-87126666D01*
X151380380Y-87031428D01*
X151380380Y-86840952D01*
X151332761Y-86745714D01*
X151285142Y-86698095D01*
X151189904Y-86650476D01*
X150380380Y-86650476D01*
X150475619Y-86221904D02*
X150428000Y-86174285D01*
X150380380Y-86079047D01*
X150380380Y-85840952D01*
X150428000Y-85745714D01*
X150475619Y-85698095D01*
X150570857Y-85650476D01*
X150666095Y-85650476D01*
X150808952Y-85698095D01*
X151380380Y-86269523D01*
X151380380Y-85650476D01*
X135135714Y-73126666D02*
X135611904Y-73126666D01*
X135040476Y-73412380D02*
X135373809Y-72412380D01*
X135707142Y-73412380D01*
X136564285Y-73412380D02*
X135992857Y-73412380D01*
X136278571Y-73412380D02*
X136278571Y-72412380D01*
X136183333Y-72555238D01*
X136088095Y-72650476D01*
X135992857Y-72698095D01*
X172666666Y-102604761D02*
X172809523Y-102652380D01*
X173047619Y-102652380D01*
X173142857Y-102604761D01*
X173190476Y-102557142D01*
X173238095Y-102461904D01*
X173238095Y-102366666D01*
X173190476Y-102271428D01*
X173142857Y-102223809D01*
X173047619Y-102176190D01*
X172857142Y-102128571D01*
X172761904Y-102080952D01*
X172714285Y-102033333D01*
X172666666Y-101938095D01*
X172666666Y-101842857D01*
X172714285Y-101747619D01*
X172761904Y-101700000D01*
X172857142Y-101652380D01*
X173095238Y-101652380D01*
X173238095Y-101700000D01*
X173571428Y-101652380D02*
X173809523Y-102652380D01*
X174000000Y-101938095D01*
X174190476Y-102652380D01*
X174428571Y-101652380D01*
X175333333Y-102652380D02*
X174761904Y-102652380D01*
X175047619Y-102652380D02*
X175047619Y-101652380D01*
X174952380Y-101795238D01*
X174857142Y-101890476D01*
X174761904Y-101938095D01*
X145666666Y-101032380D02*
X145666666Y-101746666D01*
X145619047Y-101889523D01*
X145523809Y-101984761D01*
X145380952Y-102032380D01*
X145285714Y-102032380D01*
X146142857Y-102032380D02*
X146142857Y-101032380D01*
X146523809Y-101032380D01*
X146619047Y-101080000D01*
X146666666Y-101127619D01*
X146714285Y-101222857D01*
X146714285Y-101365714D01*
X146666666Y-101460952D01*
X146619047Y-101508571D01*
X146523809Y-101556190D01*
X146142857Y-101556190D01*
X147666666Y-102032380D02*
X147095238Y-102032380D01*
X147380952Y-102032380D02*
X147380952Y-101032380D01*
X147285714Y-101175238D01*
X147190476Y-101270476D01*
X147095238Y-101318095D01*
X173833333Y-94652380D02*
X173500000Y-94176190D01*
X173261904Y-94652380D02*
X173261904Y-93652380D01*
X173642857Y-93652380D01*
X173738095Y-93700000D01*
X173785714Y-93747619D01*
X173833333Y-93842857D01*
X173833333Y-93985714D01*
X173785714Y-94080952D01*
X173738095Y-94128571D01*
X173642857Y-94176190D01*
X173261904Y-94176190D01*
X174690476Y-93985714D02*
X174690476Y-94652380D01*
X174452380Y-93604761D02*
X174214285Y-94319047D01*
X174833333Y-94319047D01*
X188507142Y-97392857D02*
X188554761Y-97440476D01*
X188602380Y-97583333D01*
X188602380Y-97678571D01*
X188554761Y-97821428D01*
X188459523Y-97916666D01*
X188364285Y-97964285D01*
X188173809Y-98011904D01*
X188030952Y-98011904D01*
X187840476Y-97964285D01*
X187745238Y-97916666D01*
X187650000Y-97821428D01*
X187602380Y-97678571D01*
X187602380Y-97583333D01*
X187650000Y-97440476D01*
X187697619Y-97392857D01*
X188602380Y-96440476D02*
X188602380Y-97011904D01*
X188602380Y-96726190D02*
X187602380Y-96726190D01*
X187745238Y-96821428D01*
X187840476Y-96916666D01*
X187888095Y-97011904D01*
X187935714Y-95583333D02*
X188602380Y-95583333D01*
X187554761Y-95821428D02*
X188269047Y-96059523D01*
X188269047Y-95440476D01*
X181077380Y-91261904D02*
X181886904Y-91261904D01*
X181982142Y-91214285D01*
X182029761Y-91166666D01*
X182077380Y-91071428D01*
X182077380Y-90880952D01*
X182029761Y-90785714D01*
X181982142Y-90738095D01*
X181886904Y-90690476D01*
X181077380Y-90690476D01*
X181077380Y-90309523D02*
X181077380Y-89690476D01*
X181458333Y-90023809D01*
X181458333Y-89880952D01*
X181505952Y-89785714D01*
X181553571Y-89738095D01*
X181648809Y-89690476D01*
X181886904Y-89690476D01*
X181982142Y-89738095D01*
X182029761Y-89785714D01*
X182077380Y-89880952D01*
X182077380Y-90166666D01*
X182029761Y-90261904D01*
X181982142Y-90309523D01*
X190833333Y-90252380D02*
X190500000Y-89776190D01*
X190261904Y-90252380D02*
X190261904Y-89252380D01*
X190642857Y-89252380D01*
X190738095Y-89300000D01*
X190785714Y-89347619D01*
X190833333Y-89442857D01*
X190833333Y-89585714D01*
X190785714Y-89680952D01*
X190738095Y-89728571D01*
X190642857Y-89776190D01*
X190261904Y-89776190D01*
X191738095Y-89252380D02*
X191261904Y-89252380D01*
X191214285Y-89728571D01*
X191261904Y-89680952D01*
X191357142Y-89633333D01*
X191595238Y-89633333D01*
X191690476Y-89680952D01*
X191738095Y-89728571D01*
X191785714Y-89823809D01*
X191785714Y-90061904D01*
X191738095Y-90157142D01*
X191690476Y-90204761D01*
X191595238Y-90252380D01*
X191357142Y-90252380D01*
X191261904Y-90204761D01*
X191214285Y-90157142D01*
X142333333Y-98852380D02*
X142000000Y-98376190D01*
X141761904Y-98852380D02*
X141761904Y-97852380D01*
X142142857Y-97852380D01*
X142238095Y-97900000D01*
X142285714Y-97947619D01*
X142333333Y-98042857D01*
X142333333Y-98185714D01*
X142285714Y-98280952D01*
X142238095Y-98328571D01*
X142142857Y-98376190D01*
X141761904Y-98376190D01*
X142714285Y-97947619D02*
X142761904Y-97900000D01*
X142857142Y-97852380D01*
X143095238Y-97852380D01*
X143190476Y-97900000D01*
X143238095Y-97947619D01*
X143285714Y-98042857D01*
X143285714Y-98138095D01*
X143238095Y-98280952D01*
X142666666Y-98852380D01*
X143285714Y-98852380D01*
X135683333Y-88187142D02*
X135635714Y-88234761D01*
X135492857Y-88282380D01*
X135397619Y-88282380D01*
X135254761Y-88234761D01*
X135159523Y-88139523D01*
X135111904Y-88044285D01*
X135064285Y-87853809D01*
X135064285Y-87710952D01*
X135111904Y-87520476D01*
X135159523Y-87425238D01*
X135254761Y-87330000D01*
X135397619Y-87282380D01*
X135492857Y-87282380D01*
X135635714Y-87330000D01*
X135683333Y-87377619D01*
X136016666Y-87282380D02*
X136635714Y-87282380D01*
X136302380Y-87663333D01*
X136445238Y-87663333D01*
X136540476Y-87710952D01*
X136588095Y-87758571D01*
X136635714Y-87853809D01*
X136635714Y-88091904D01*
X136588095Y-88187142D01*
X136540476Y-88234761D01*
X136445238Y-88282380D01*
X136159523Y-88282380D01*
X136064285Y-88234761D01*
X136016666Y-88187142D01*
X105266666Y-75452380D02*
X105266666Y-76166666D01*
X105219047Y-76309523D01*
X105123809Y-76404761D01*
X104980952Y-76452380D01*
X104885714Y-76452380D01*
X106219047Y-75452380D02*
X105742857Y-75452380D01*
X105695238Y-75928571D01*
X105742857Y-75880952D01*
X105838095Y-75833333D01*
X106076190Y-75833333D01*
X106171428Y-75880952D01*
X106219047Y-75928571D01*
X106266666Y-76023809D01*
X106266666Y-76261904D01*
X106219047Y-76357142D01*
X106171428Y-76404761D01*
X106076190Y-76452380D01*
X105838095Y-76452380D01*
X105742857Y-76404761D01*
X105695238Y-76357142D01*
X146916666Y-59192380D02*
X146916666Y-59906666D01*
X146869047Y-60049523D01*
X146773809Y-60144761D01*
X146630952Y-60192380D01*
X146535714Y-60192380D01*
X147821428Y-59192380D02*
X147630952Y-59192380D01*
X147535714Y-59240000D01*
X147488095Y-59287619D01*
X147392857Y-59430476D01*
X147345238Y-59620952D01*
X147345238Y-60001904D01*
X147392857Y-60097142D01*
X147440476Y-60144761D01*
X147535714Y-60192380D01*
X147726190Y-60192380D01*
X147821428Y-60144761D01*
X147869047Y-60097142D01*
X147916666Y-60001904D01*
X147916666Y-59763809D01*
X147869047Y-59668571D01*
X147821428Y-59620952D01*
X147726190Y-59573333D01*
X147535714Y-59573333D01*
X147440476Y-59620952D01*
X147392857Y-59668571D01*
X147345238Y-59763809D01*
X148887333Y-91261142D02*
X148839714Y-91308761D01*
X148696857Y-91356380D01*
X148601619Y-91356380D01*
X148458761Y-91308761D01*
X148363523Y-91213523D01*
X148315904Y-91118285D01*
X148268285Y-90927809D01*
X148268285Y-90784952D01*
X148315904Y-90594476D01*
X148363523Y-90499238D01*
X148458761Y-90404000D01*
X148601619Y-90356380D01*
X148696857Y-90356380D01*
X148839714Y-90404000D01*
X148887333Y-90451619D01*
X149744476Y-90689714D02*
X149744476Y-91356380D01*
X149506380Y-90308761D02*
X149268285Y-91023047D01*
X149887333Y-91023047D01*
X115133333Y-94157142D02*
X115085714Y-94204761D01*
X114942857Y-94252380D01*
X114847619Y-94252380D01*
X114704761Y-94204761D01*
X114609523Y-94109523D01*
X114561904Y-94014285D01*
X114514285Y-93823809D01*
X114514285Y-93680952D01*
X114561904Y-93490476D01*
X114609523Y-93395238D01*
X114704761Y-93300000D01*
X114847619Y-93252380D01*
X114942857Y-93252380D01*
X115085714Y-93300000D01*
X115133333Y-93347619D01*
X116038095Y-93252380D02*
X115561904Y-93252380D01*
X115514285Y-93728571D01*
X115561904Y-93680952D01*
X115657142Y-93633333D01*
X115895238Y-93633333D01*
X115990476Y-93680952D01*
X116038095Y-93728571D01*
X116085714Y-93823809D01*
X116085714Y-94061904D01*
X116038095Y-94157142D01*
X115990476Y-94204761D01*
X115895238Y-94252380D01*
X115657142Y-94252380D01*
X115561904Y-94204761D01*
X115514285Y-94157142D01*
X150157142Y-80166666D02*
X150204761Y-80214285D01*
X150252380Y-80357142D01*
X150252380Y-80452380D01*
X150204761Y-80595238D01*
X150109523Y-80690476D01*
X150014285Y-80738095D01*
X149823809Y-80785714D01*
X149680952Y-80785714D01*
X149490476Y-80738095D01*
X149395238Y-80690476D01*
X149300000Y-80595238D01*
X149252380Y-80452380D01*
X149252380Y-80357142D01*
X149300000Y-80214285D01*
X149347619Y-80166666D01*
X149252380Y-79309523D02*
X149252380Y-79500000D01*
X149300000Y-79595238D01*
X149347619Y-79642857D01*
X149490476Y-79738095D01*
X149680952Y-79785714D01*
X150061904Y-79785714D01*
X150157142Y-79738095D01*
X150204761Y-79690476D01*
X150252380Y-79595238D01*
X150252380Y-79404761D01*
X150204761Y-79309523D01*
X150157142Y-79261904D01*
X150061904Y-79214285D01*
X149823809Y-79214285D01*
X149728571Y-79261904D01*
X149680952Y-79309523D01*
X149633333Y-79404761D01*
X149633333Y-79595238D01*
X149680952Y-79690476D01*
X149728571Y-79738095D01*
X149823809Y-79785714D01*
X162583333Y-80457142D02*
X162535714Y-80504761D01*
X162392857Y-80552380D01*
X162297619Y-80552380D01*
X162154761Y-80504761D01*
X162059523Y-80409523D01*
X162011904Y-80314285D01*
X161964285Y-80123809D01*
X161964285Y-79980952D01*
X162011904Y-79790476D01*
X162059523Y-79695238D01*
X162154761Y-79600000D01*
X162297619Y-79552380D01*
X162392857Y-79552380D01*
X162535714Y-79600000D01*
X162583333Y-79647619D01*
X162916666Y-79552380D02*
X163583333Y-79552380D01*
X163154761Y-80552380D01*
X156207142Y-94416666D02*
X156254761Y-94464285D01*
X156302380Y-94607142D01*
X156302380Y-94702380D01*
X156254761Y-94845238D01*
X156159523Y-94940476D01*
X156064285Y-94988095D01*
X155873809Y-95035714D01*
X155730952Y-95035714D01*
X155540476Y-94988095D01*
X155445238Y-94940476D01*
X155350000Y-94845238D01*
X155302380Y-94702380D01*
X155302380Y-94607142D01*
X155350000Y-94464285D01*
X155397619Y-94416666D01*
X156302380Y-93940476D02*
X156302380Y-93750000D01*
X156254761Y-93654761D01*
X156207142Y-93607142D01*
X156064285Y-93511904D01*
X155873809Y-93464285D01*
X155492857Y-93464285D01*
X155397619Y-93511904D01*
X155350000Y-93559523D01*
X155302380Y-93654761D01*
X155302380Y-93845238D01*
X155350000Y-93940476D01*
X155397619Y-93988095D01*
X155492857Y-94035714D01*
X155730952Y-94035714D01*
X155826190Y-93988095D01*
X155873809Y-93940476D01*
X155921428Y-93845238D01*
X155921428Y-93654761D01*
X155873809Y-93559523D01*
X155826190Y-93511904D01*
X155730952Y-93464285D01*
X167857142Y-74557142D02*
X167809523Y-74604761D01*
X167666666Y-74652380D01*
X167571428Y-74652380D01*
X167428571Y-74604761D01*
X167333333Y-74509523D01*
X167285714Y-74414285D01*
X167238095Y-74223809D01*
X167238095Y-74080952D01*
X167285714Y-73890476D01*
X167333333Y-73795238D01*
X167428571Y-73700000D01*
X167571428Y-73652380D01*
X167666666Y-73652380D01*
X167809523Y-73700000D01*
X167857142Y-73747619D01*
X168809523Y-74652380D02*
X168238095Y-74652380D01*
X168523809Y-74652380D02*
X168523809Y-73652380D01*
X168428571Y-73795238D01*
X168333333Y-73890476D01*
X168238095Y-73938095D01*
X169428571Y-73652380D02*
X169523809Y-73652380D01*
X169619047Y-73700000D01*
X169666666Y-73747619D01*
X169714285Y-73842857D01*
X169761904Y-74033333D01*
X169761904Y-74271428D01*
X169714285Y-74461904D01*
X169666666Y-74557142D01*
X169619047Y-74604761D01*
X169523809Y-74652380D01*
X169428571Y-74652380D01*
X169333333Y-74604761D01*
X169285714Y-74557142D01*
X169238095Y-74461904D01*
X169190476Y-74271428D01*
X169190476Y-74033333D01*
X169238095Y-73842857D01*
X169285714Y-73747619D01*
X169333333Y-73700000D01*
X169428571Y-73652380D01*
X160207142Y-94892857D02*
X160254761Y-94940476D01*
X160302380Y-95083333D01*
X160302380Y-95178571D01*
X160254761Y-95321428D01*
X160159523Y-95416666D01*
X160064285Y-95464285D01*
X159873809Y-95511904D01*
X159730952Y-95511904D01*
X159540476Y-95464285D01*
X159445238Y-95416666D01*
X159350000Y-95321428D01*
X159302380Y-95178571D01*
X159302380Y-95083333D01*
X159350000Y-94940476D01*
X159397619Y-94892857D01*
X160302380Y-93940476D02*
X160302380Y-94511904D01*
X160302380Y-94226190D02*
X159302380Y-94226190D01*
X159445238Y-94321428D01*
X159540476Y-94416666D01*
X159588095Y-94511904D01*
X160302380Y-92988095D02*
X160302380Y-93559523D01*
X160302380Y-93273809D02*
X159302380Y-93273809D01*
X159445238Y-93369047D01*
X159540476Y-93464285D01*
X159588095Y-93559523D01*
X150257142Y-74457142D02*
X150209523Y-74504761D01*
X150066666Y-74552380D01*
X149971428Y-74552380D01*
X149828571Y-74504761D01*
X149733333Y-74409523D01*
X149685714Y-74314285D01*
X149638095Y-74123809D01*
X149638095Y-73980952D01*
X149685714Y-73790476D01*
X149733333Y-73695238D01*
X149828571Y-73600000D01*
X149971428Y-73552380D01*
X150066666Y-73552380D01*
X150209523Y-73600000D01*
X150257142Y-73647619D01*
X151209523Y-74552380D02*
X150638095Y-74552380D01*
X150923809Y-74552380D02*
X150923809Y-73552380D01*
X150828571Y-73695238D01*
X150733333Y-73790476D01*
X150638095Y-73838095D01*
X151542857Y-73552380D02*
X152161904Y-73552380D01*
X151828571Y-73933333D01*
X151971428Y-73933333D01*
X152066666Y-73980952D01*
X152114285Y-74028571D01*
X152161904Y-74123809D01*
X152161904Y-74361904D01*
X152114285Y-74457142D01*
X152066666Y-74504761D01*
X151971428Y-74552380D01*
X151685714Y-74552380D01*
X151590476Y-74504761D01*
X151542857Y-74457142D01*
X120557142Y-102966666D02*
X120604761Y-103014285D01*
X120652380Y-103157142D01*
X120652380Y-103252380D01*
X120604761Y-103395238D01*
X120509523Y-103490476D01*
X120414285Y-103538095D01*
X120223809Y-103585714D01*
X120080952Y-103585714D01*
X119890476Y-103538095D01*
X119795238Y-103490476D01*
X119700000Y-103395238D01*
X119652380Y-103252380D01*
X119652380Y-103157142D01*
X119700000Y-103014285D01*
X119747619Y-102966666D01*
X120080952Y-102395238D02*
X120033333Y-102490476D01*
X119985714Y-102538095D01*
X119890476Y-102585714D01*
X119842857Y-102585714D01*
X119747619Y-102538095D01*
X119700000Y-102490476D01*
X119652380Y-102395238D01*
X119652380Y-102204761D01*
X119700000Y-102109523D01*
X119747619Y-102061904D01*
X119842857Y-102014285D01*
X119890476Y-102014285D01*
X119985714Y-102061904D01*
X120033333Y-102109523D01*
X120080952Y-102204761D01*
X120080952Y-102395238D01*
X120128571Y-102490476D01*
X120176190Y-102538095D01*
X120271428Y-102585714D01*
X120461904Y-102585714D01*
X120557142Y-102538095D01*
X120604761Y-102490476D01*
X120652380Y-102395238D01*
X120652380Y-102204761D01*
X120604761Y-102109523D01*
X120557142Y-102061904D01*
X120461904Y-102014285D01*
X120271428Y-102014285D01*
X120176190Y-102061904D01*
X120128571Y-102109523D01*
X120080952Y-102204761D01*
X125357142Y-99942857D02*
X125404761Y-99990476D01*
X125452380Y-100133333D01*
X125452380Y-100228571D01*
X125404761Y-100371428D01*
X125309523Y-100466666D01*
X125214285Y-100514285D01*
X125023809Y-100561904D01*
X124880952Y-100561904D01*
X124690476Y-100514285D01*
X124595238Y-100466666D01*
X124500000Y-100371428D01*
X124452380Y-100228571D01*
X124452380Y-100133333D01*
X124500000Y-99990476D01*
X124547619Y-99942857D01*
X125452380Y-98990476D02*
X125452380Y-99561904D01*
X125452380Y-99276190D02*
X124452380Y-99276190D01*
X124595238Y-99371428D01*
X124690476Y-99466666D01*
X124738095Y-99561904D01*
X124547619Y-98609523D02*
X124500000Y-98561904D01*
X124452380Y-98466666D01*
X124452380Y-98228571D01*
X124500000Y-98133333D01*
X124547619Y-98085714D01*
X124642857Y-98038095D01*
X124738095Y-98038095D01*
X124880952Y-98085714D01*
X125452380Y-98657142D01*
X125452380Y-98038095D01*
X116833333Y-81257142D02*
X116785714Y-81304761D01*
X116642857Y-81352380D01*
X116547619Y-81352380D01*
X116404761Y-81304761D01*
X116309523Y-81209523D01*
X116261904Y-81114285D01*
X116214285Y-80923809D01*
X116214285Y-80780952D01*
X116261904Y-80590476D01*
X116309523Y-80495238D01*
X116404761Y-80400000D01*
X116547619Y-80352380D01*
X116642857Y-80352380D01*
X116785714Y-80400000D01*
X116833333Y-80447619D01*
X117214285Y-80447619D02*
X117261904Y-80400000D01*
X117357142Y-80352380D01*
X117595238Y-80352380D01*
X117690476Y-80400000D01*
X117738095Y-80447619D01*
X117785714Y-80542857D01*
X117785714Y-80638095D01*
X117738095Y-80780952D01*
X117166666Y-81352380D01*
X117785714Y-81352380D01*
X107361904Y-94652380D02*
X107361904Y-93652380D01*
X107600000Y-93652380D01*
X107742857Y-93700000D01*
X107838095Y-93795238D01*
X107885714Y-93890476D01*
X107933333Y-94080952D01*
X107933333Y-94223809D01*
X107885714Y-94414285D01*
X107838095Y-94509523D01*
X107742857Y-94604761D01*
X107600000Y-94652380D01*
X107361904Y-94652380D01*
X108266666Y-93652380D02*
X108885714Y-93652380D01*
X108552380Y-94033333D01*
X108695238Y-94033333D01*
X108790476Y-94080952D01*
X108838095Y-94128571D01*
X108885714Y-94223809D01*
X108885714Y-94461904D01*
X108838095Y-94557142D01*
X108790476Y-94604761D01*
X108695238Y-94652380D01*
X108409523Y-94652380D01*
X108314285Y-94604761D01*
X108266666Y-94557142D01*
X123552380Y-91038095D02*
X122552380Y-91038095D01*
X122552380Y-90800000D01*
X122600000Y-90657142D01*
X122695238Y-90561904D01*
X122790476Y-90514285D01*
X122980952Y-90466666D01*
X123123809Y-90466666D01*
X123314285Y-90514285D01*
X123409523Y-90561904D01*
X123504761Y-90657142D01*
X123552380Y-90800000D01*
X123552380Y-91038095D01*
X122885714Y-89609523D02*
X123552380Y-89609523D01*
X122504761Y-89847619D02*
X123219047Y-90085714D01*
X123219047Y-89466666D01*
X113333333Y-103152380D02*
X112857142Y-103152380D01*
X112857142Y-102152380D01*
X114190476Y-103152380D02*
X113619047Y-103152380D01*
X113904761Y-103152380D02*
X113904761Y-102152380D01*
X113809523Y-102295238D01*
X113714285Y-102390476D01*
X113619047Y-102438095D01*
X111138095Y-88152380D02*
X111138095Y-88961904D01*
X111185714Y-89057142D01*
X111233333Y-89104761D01*
X111328571Y-89152380D01*
X111519047Y-89152380D01*
X111614285Y-89104761D01*
X111661904Y-89057142D01*
X111709523Y-88961904D01*
X111709523Y-88152380D01*
X112614285Y-88485714D02*
X112614285Y-89152380D01*
X112376190Y-88104761D02*
X112138095Y-88819047D01*
X112757142Y-88819047D01*
X120652380Y-88666666D02*
X120176190Y-89000000D01*
X120652380Y-89238095D02*
X119652380Y-89238095D01*
X119652380Y-88857142D01*
X119700000Y-88761904D01*
X119747619Y-88714285D01*
X119842857Y-88666666D01*
X119985714Y-88666666D01*
X120080952Y-88714285D01*
X120128571Y-88761904D01*
X120176190Y-88857142D01*
X120176190Y-89238095D01*
X120080952Y-88095238D02*
X120033333Y-88190476D01*
X119985714Y-88238095D01*
X119890476Y-88285714D01*
X119842857Y-88285714D01*
X119747619Y-88238095D01*
X119700000Y-88190476D01*
X119652380Y-88095238D01*
X119652380Y-87904761D01*
X119700000Y-87809523D01*
X119747619Y-87761904D01*
X119842857Y-87714285D01*
X119890476Y-87714285D01*
X119985714Y-87761904D01*
X120033333Y-87809523D01*
X120080952Y-87904761D01*
X120080952Y-88095238D01*
X120128571Y-88190476D01*
X120176190Y-88238095D01*
X120271428Y-88285714D01*
X120461904Y-88285714D01*
X120557142Y-88238095D01*
X120604761Y-88190476D01*
X120652380Y-88095238D01*
X120652380Y-87904761D01*
X120604761Y-87809523D01*
X120557142Y-87761904D01*
X120461904Y-87714285D01*
X120271428Y-87714285D01*
X120176190Y-87761904D01*
X120128571Y-87809523D01*
X120080952Y-87904761D01*
X127302380Y-93266666D02*
X126826190Y-93600000D01*
X127302380Y-93838095D02*
X126302380Y-93838095D01*
X126302380Y-93457142D01*
X126350000Y-93361904D01*
X126397619Y-93314285D01*
X126492857Y-93266666D01*
X126635714Y-93266666D01*
X126730952Y-93314285D01*
X126778571Y-93361904D01*
X126826190Y-93457142D01*
X126826190Y-93838095D01*
X127302380Y-92790476D02*
X127302380Y-92600000D01*
X127254761Y-92504761D01*
X127207142Y-92457142D01*
X127064285Y-92361904D01*
X126873809Y-92314285D01*
X126492857Y-92314285D01*
X126397619Y-92361904D01*
X126350000Y-92409523D01*
X126302380Y-92504761D01*
X126302380Y-92695238D01*
X126350000Y-92790476D01*
X126397619Y-92838095D01*
X126492857Y-92885714D01*
X126730952Y-92885714D01*
X126826190Y-92838095D01*
X126873809Y-92790476D01*
X126921428Y-92695238D01*
X126921428Y-92504761D01*
X126873809Y-92409523D01*
X126826190Y-92361904D01*
X126730952Y-92314285D01*
X154583333Y-74552380D02*
X154250000Y-74076190D01*
X154011904Y-74552380D02*
X154011904Y-73552380D01*
X154392857Y-73552380D01*
X154488095Y-73600000D01*
X154535714Y-73647619D01*
X154583333Y-73742857D01*
X154583333Y-73885714D01*
X154535714Y-73980952D01*
X154488095Y-74028571D01*
X154392857Y-74076190D01*
X154011904Y-74076190D01*
X154916666Y-73552380D02*
X155583333Y-73552380D01*
X155154761Y-74552380D01*
X164333333Y-74652380D02*
X164000000Y-74176190D01*
X163761904Y-74652380D02*
X163761904Y-73652380D01*
X164142857Y-73652380D01*
X164238095Y-73700000D01*
X164285714Y-73747619D01*
X164333333Y-73842857D01*
X164333333Y-73985714D01*
X164285714Y-74080952D01*
X164238095Y-74128571D01*
X164142857Y-74176190D01*
X163761904Y-74176190D01*
X165190476Y-73652380D02*
X165000000Y-73652380D01*
X164904761Y-73700000D01*
X164857142Y-73747619D01*
X164761904Y-73890476D01*
X164714285Y-74080952D01*
X164714285Y-74461904D01*
X164761904Y-74557142D01*
X164809523Y-74604761D01*
X164904761Y-74652380D01*
X165095238Y-74652380D01*
X165190476Y-74604761D01*
X165238095Y-74557142D01*
X165285714Y-74461904D01*
X165285714Y-74223809D01*
X165238095Y-74128571D01*
X165190476Y-74080952D01*
X165095238Y-74033333D01*
X164904761Y-74033333D01*
X164809523Y-74080952D01*
X164761904Y-74128571D01*
X164714285Y-74223809D01*
M02*
