M48
;DRILL file {KiCad (5.0.0-rc2-dev-647-g0f5eb421b)} date 05/07/18 01:31:44
;FORMAT={-:-/ absolute / inch / decimal}
FMAT,2
INCH,TZ
T1C0.0157
T2C0.0315
T3C0.0362
T4C0.0394
T5C0.0400
T6C0.0512
T7C0.0906
%
G90
G05
M72
T1
X4.5276Y-2.5591
X4.5276Y-2.9528
X4.6732Y-3.5
X4.7165Y-3.5
X4.7559Y-3.5
X4.9213Y-2.5591
X4.9213Y-2.9528
X5.7467Y-3.4403
X5.7795Y-3.4065
X5.8465Y-3.2283
X5.9252Y-3.2756
X6.0906Y-3.315
X6.0906Y-3.374
X6.0906Y-3.4331
X6.0906Y-3.4921
X6.1024Y-3.061
X6.1421Y-3.0311
X6.1496Y-3.315
X6.1496Y-3.374
X6.1496Y-3.4331
X6.1496Y-3.4921
X6.1516Y-3.6319
X6.1811Y-3.002
X6.2047Y-3.315
X6.2047Y-3.374
X6.2047Y-3.4331
X6.2047Y-3.4921
X6.2677Y-3.315
X6.2677Y-3.374
X6.2677Y-3.4331
X6.2677Y-3.4921
X6.3287Y-3.1299
X6.7032Y-3.193
X6.7181Y-3.2337
X6.9587Y-3.8091
X7.0965Y-3.563
X7.1358Y-3.5925
X7.1949Y-3.1594
X7.2835Y-3.5433
X7.2835Y-3.5827
X7.313Y-3.1693
X7.3228Y-3.5433
X7.3228Y-3.5827
X7.4705Y-3.7795
X7.6083Y-3.6024
T2
X5.2795Y-3.6693
X5.4173Y-3.6693
X5.0984Y-2.9724
X5.0984Y-3.0724
X5.0984Y-3.1724
X5.0984Y-3.2724
X5.0984Y-3.3724
X5.0984Y-3.4724
X5.0984Y-3.5724
X5.0984Y-3.6724
X5.5984Y-2.9724
X5.5984Y-3.0724
X5.5984Y-3.1724
X5.5984Y-3.2724
X5.5984Y-3.3724
X5.5984Y-3.4724
X5.5984Y-3.5724
X5.5984Y-3.6724
T3
X7.1575Y-2.9646
X7.1575Y-3.0906
X7.2559Y-2.9646
X7.2559Y-3.0906
T4
X5.7677Y-3.8075
X5.7677Y-3.9075
X6.6772Y-3.5157
X6.6772Y-3.6157
X6.6772Y-3.7157
X6.0472Y-3.9016
X6.1472Y-3.9016
X6.2472Y-3.9016
X6.3472Y-3.9016
T5
X7.1063Y-2.5614
X7.1063Y-2.6614
X7.2063Y-2.5614
X7.2063Y-2.6614
X7.3063Y-2.5614
X7.3063Y-2.6614
T6
X5.2067Y-2.5984
X5.4035Y-2.5984
X5.6004Y-2.5984
X5.7972Y-2.5984
X5.9941Y-2.5984
X6.1909Y-2.5984
X6.3878Y-2.5984
X4.1732Y-3.1496
X4.1732Y-3.3465
T7
X6.9697Y-2.9839
X7.4437Y-2.9839
T0
M30
