G04 #@! TF.GenerationSoftware,KiCad,Pcbnew,(5.0.0-rc2-dev-647-g0f5eb421b)*
G04 #@! TF.CreationDate,2018-05-07T01:31:26+02:00*
G04 #@! TF.ProjectId,monochromator,6D6F6E6F6368726F6D61746F722E6B69,rev?*
G04 #@! TF.SameCoordinates,Original*
G04 #@! TF.FileFunction,Copper,L2,Bot,Signal*
G04 #@! TF.FilePolarity,Positive*
%FSLAX46Y46*%
G04 Gerber Fmt 4.6, Leading zero omitted, Abs format (unit mm)*
G04 Created by KiCad (PCBNEW (5.0.0-rc2-dev-647-g0f5eb421b)) date 05/07/18 01:31:26*
%MOMM*%
%LPD*%
G01*
G04 APERTURE LIST*
%ADD10R,1.700000X1.700000*%
%ADD11O,1.700000X1.700000*%
%ADD12C,3.000000*%
%ADD13C,1.400000*%
%ADD14R,1.400000X1.400000*%
%ADD15R,1.727200X1.727200*%
%ADD16O,1.727200X1.727200*%
%ADD17R,1.600000X1.600000*%
%ADD18O,1.600000X1.600000*%
%ADD19C,1.600000*%
%ADD20R,2.600000X2.600000*%
%ADD21C,2.600000*%
%ADD22C,0.800000*%
%ADD23C,2.000000*%
%ADD24C,0.500000*%
%ADD25C,0.250000*%
%ADD26C,1.000000*%
%ADD27C,0.254000*%
G04 APERTURE END LIST*
D10*
X153600000Y-99100000D03*
D11*
X156140000Y-99100000D03*
X158680000Y-99100000D03*
X161220000Y-99100000D03*
D12*
X189070000Y-75790000D03*
D13*
X184300000Y-75300000D03*
X181800000Y-75300000D03*
D14*
X184300000Y-78500000D03*
D12*
X177030000Y-75790000D03*
D13*
X181800000Y-78500000D03*
D10*
X169600000Y-89300000D03*
D11*
X169600000Y-91840000D03*
X169600000Y-94380000D03*
D15*
X180500000Y-67600000D03*
D16*
X180500000Y-65060000D03*
X183040000Y-67600000D03*
X183040000Y-65060000D03*
X185580000Y-67600000D03*
X185580000Y-65060000D03*
D17*
X129500000Y-75500000D03*
D18*
X142200000Y-93280000D03*
X129500000Y-78040000D03*
X142200000Y-90740000D03*
X129500000Y-80580000D03*
X142200000Y-88200000D03*
X129500000Y-83120000D03*
X142200000Y-85660000D03*
X129500000Y-85660000D03*
X142200000Y-83120000D03*
X129500000Y-88200000D03*
X142200000Y-80580000D03*
X129500000Y-90740000D03*
X142200000Y-78040000D03*
X129500000Y-93280000D03*
X142200000Y-75500000D03*
D10*
X146500000Y-99250000D03*
D11*
X146500000Y-96710000D03*
D17*
X134100000Y-93200000D03*
D19*
X137600000Y-93200000D03*
D20*
X106000000Y-85000000D03*
D21*
X106000000Y-80000000D03*
D20*
X132250000Y-66000000D03*
D21*
X137250000Y-66000000D03*
X142250000Y-66000000D03*
X147250000Y-66000000D03*
X152250000Y-66000000D03*
X157250000Y-66000000D03*
X162250000Y-66000000D03*
D22*
X156200000Y-87200000D03*
X156200000Y-85700000D03*
X157600000Y-85700000D03*
X157600000Y-87200000D03*
X159200000Y-87200000D03*
X159200000Y-85700000D03*
X157600000Y-84200000D03*
X156200000Y-84200000D03*
X154700000Y-85700000D03*
X154700000Y-87200000D03*
X157600000Y-88700000D03*
X156200000Y-88700000D03*
X154700000Y-88700000D03*
X159200000Y-88700000D03*
X159200000Y-84200000D03*
X154700000Y-84200000D03*
X120800000Y-88900000D03*
X119800000Y-88900000D03*
X118700000Y-88900000D03*
X185750000Y-80500000D03*
X185000000Y-91000000D03*
X186000000Y-91000000D03*
X186000000Y-90000000D03*
X185000000Y-90000000D03*
X115000000Y-65000000D03*
X125000000Y-65000000D03*
X115000000Y-75000000D03*
X125000000Y-75000000D03*
X182749990Y-80250000D03*
X170639742Y-82135980D03*
X170261280Y-81102200D03*
X156250000Y-92250000D03*
X176750000Y-96750000D03*
X189750000Y-96000000D03*
X193250000Y-91500000D03*
X148500000Y-82000000D03*
X160750000Y-79500000D03*
X157000000Y-76250000D03*
X180250000Y-90500000D03*
X181250000Y-91250000D03*
X156009340Y-76989940D03*
X154999998Y-77750000D03*
X150500000Y-83200000D03*
X146800000Y-86524990D03*
X145966180Y-87383620D03*
D23*
X129500000Y-93280000D02*
X127880000Y-93280000D01*
X127880000Y-93280000D02*
X119600000Y-85000000D01*
X119600000Y-85000000D02*
X106000000Y-85000000D01*
D24*
X119800000Y-88900000D02*
X120800000Y-88900000D01*
X118700000Y-88900000D02*
X119800000Y-88900000D01*
D25*
X171039741Y-81735981D02*
X170639742Y-82135980D01*
X171039741Y-76767641D02*
X171039741Y-81735981D01*
X162250000Y-66000000D02*
X162250000Y-67977900D01*
X162250000Y-67977900D02*
X171039741Y-76767641D01*
X170500000Y-80863480D02*
X170261280Y-81102200D01*
X170500000Y-77015300D02*
X170500000Y-80863480D01*
X157250000Y-66000000D02*
X159484700Y-66000000D01*
X159484700Y-66000000D02*
X170500000Y-77015300D01*
X156250000Y-92250000D02*
X156250000Y-98990000D01*
X156250000Y-98990000D02*
X156140000Y-99100000D01*
X156140000Y-92360000D02*
X156250000Y-92250000D01*
D26*
X174750000Y-102250000D02*
X176750000Y-102250000D01*
X176750000Y-97315685D02*
X176750000Y-96750000D01*
X176750000Y-102250000D02*
X176750000Y-97315685D01*
X174750000Y-102250000D02*
X185750000Y-102250000D01*
X149750000Y-102250000D02*
X174750000Y-102250000D01*
X190750000Y-97000000D02*
X189750000Y-96000000D01*
X191000000Y-97000000D02*
X190750000Y-97000000D01*
X191000000Y-97000000D02*
X194000000Y-94000000D01*
X185750000Y-102250000D02*
X191000000Y-97000000D01*
X194000000Y-91500000D02*
X194000000Y-73500000D01*
X194000000Y-94000000D02*
X194000000Y-91500000D01*
X194000000Y-91500000D02*
X193250000Y-91500000D01*
X148500000Y-99500000D02*
X148500000Y-101000000D01*
X148500000Y-82000000D02*
X148500000Y-99500000D01*
X146500000Y-99250000D02*
X148350000Y-99250000D01*
X148350000Y-99250000D02*
X148500000Y-99400000D01*
X148500000Y-99400000D02*
X148500000Y-99500000D01*
X148500000Y-101000000D02*
X149750000Y-102250000D01*
X160750000Y-79500000D02*
X151000000Y-79500000D01*
X151000000Y-79500000D02*
X148899999Y-81600001D01*
X148899999Y-81600001D02*
X148500000Y-82000000D01*
X182250000Y-71250000D02*
X180500000Y-69500000D01*
X180500000Y-69500000D02*
X180500000Y-67600000D01*
X191750000Y-71250000D02*
X182250000Y-71250000D01*
X194000000Y-73500000D02*
X191750000Y-71250000D01*
D25*
X185580000Y-68520000D02*
X185580000Y-67600000D01*
X180250000Y-90500000D02*
X176500000Y-90500000D01*
X157250000Y-76500000D02*
X157000000Y-76250000D01*
X176500000Y-90500000D02*
X162500000Y-76500000D01*
X162500000Y-76500000D02*
X157250000Y-76500000D01*
X156575025Y-76989940D02*
X156009340Y-76989940D01*
X162239940Y-76989940D02*
X156575025Y-76989940D01*
X176200010Y-90950010D02*
X162239940Y-76989940D01*
X179450010Y-90950010D02*
X176200010Y-90950010D01*
X179750000Y-91250000D02*
X179450010Y-90950010D01*
X181250000Y-91250000D02*
X179750000Y-91250000D01*
X162000000Y-77500000D02*
X156750000Y-77500000D01*
X164750000Y-80250000D02*
X162000000Y-77500000D01*
X164750000Y-95570000D02*
X164750000Y-80250000D01*
X161220000Y-99100000D02*
X164750000Y-95570000D01*
X156750000Y-77500000D02*
X156500000Y-77750000D01*
X156500000Y-77750000D02*
X154999998Y-77750000D01*
X153200000Y-90600000D02*
X150500000Y-87900000D01*
X150500000Y-87900000D02*
X150500000Y-83200000D01*
X158680000Y-91380000D02*
X157900000Y-90600000D01*
X157900000Y-90600000D02*
X153200000Y-90600000D01*
X158680000Y-99100000D02*
X158680000Y-91380000D01*
X146800000Y-80100000D02*
X146800000Y-86524990D01*
X142200000Y-75500000D02*
X146800000Y-80100000D01*
X144040000Y-78040000D02*
X142200000Y-78040000D01*
X146250000Y-80250000D02*
X144040000Y-78040000D01*
X146250000Y-85849990D02*
X146250000Y-80250000D01*
X145966180Y-87383620D02*
X145966180Y-86133810D01*
X145966180Y-86133810D02*
X146250000Y-85849990D01*
D27*
G36*
X199598001Y-104598000D02*
X100402000Y-104598000D01*
X100402000Y-99378001D01*
X101873000Y-99378001D01*
X101873000Y-100621999D01*
X102349057Y-101771303D01*
X103228697Y-102650943D01*
X104378001Y-103127000D01*
X105621999Y-103127000D01*
X106771303Y-102650943D01*
X107650943Y-101771303D01*
X108127000Y-100621999D01*
X108127000Y-99378001D01*
X107650943Y-98228697D01*
X106771303Y-97349057D01*
X105621999Y-96873000D01*
X104378001Y-96873000D01*
X103228697Y-97349057D01*
X102349057Y-98228697D01*
X101873000Y-99378001D01*
X100402000Y-99378001D01*
X100402000Y-96710000D01*
X145299942Y-96710000D01*
X145391291Y-97169242D01*
X145651431Y-97558569D01*
X146040758Y-97818709D01*
X146384080Y-97887000D01*
X146615920Y-97887000D01*
X146959242Y-97818709D01*
X147348569Y-97558569D01*
X147608709Y-97169242D01*
X147673001Y-96846025D01*
X147673001Y-98347690D01*
X147658027Y-98272411D01*
X147585754Y-98164246D01*
X147477589Y-98091973D01*
X147350000Y-98066594D01*
X145650000Y-98066594D01*
X145522411Y-98091973D01*
X145414246Y-98164246D01*
X145341973Y-98272411D01*
X145316594Y-98400000D01*
X145316594Y-100100000D01*
X145341973Y-100227589D01*
X145414246Y-100335754D01*
X145522411Y-100408027D01*
X145650000Y-100433406D01*
X147350000Y-100433406D01*
X147477589Y-100408027D01*
X147585754Y-100335754D01*
X147658027Y-100227589D01*
X147673000Y-100152312D01*
X147673001Y-100918552D01*
X147656800Y-101000000D01*
X147720984Y-101322678D01*
X147720985Y-101322679D01*
X147903768Y-101596233D01*
X147972817Y-101642370D01*
X149107630Y-102777183D01*
X149153767Y-102846233D01*
X149427321Y-103029016D01*
X149668552Y-103077000D01*
X149668556Y-103077000D01*
X149750000Y-103093200D01*
X149831444Y-103077000D01*
X176668552Y-103077000D01*
X176750000Y-103093201D01*
X176831447Y-103077000D01*
X185668556Y-103077000D01*
X185750000Y-103093200D01*
X185831444Y-103077000D01*
X185831448Y-103077000D01*
X186072679Y-103029016D01*
X186346233Y-102846233D01*
X186392372Y-102777181D01*
X189791553Y-99378001D01*
X191873000Y-99378001D01*
X191873000Y-100621999D01*
X192349057Y-101771303D01*
X193228697Y-102650943D01*
X194378001Y-103127000D01*
X195621999Y-103127000D01*
X196771303Y-102650943D01*
X197650943Y-101771303D01*
X198127000Y-100621999D01*
X198127000Y-99378001D01*
X197650943Y-98228697D01*
X196771303Y-97349057D01*
X195621999Y-96873000D01*
X194378001Y-96873000D01*
X193228697Y-97349057D01*
X192349057Y-98228697D01*
X191873000Y-99378001D01*
X189791553Y-99378001D01*
X191527187Y-97642368D01*
X191596233Y-97596233D01*
X191642372Y-97527181D01*
X194527184Y-94642370D01*
X194596233Y-94596233D01*
X194779016Y-94322679D01*
X194827000Y-94081448D01*
X194827000Y-94081447D01*
X194843201Y-94000000D01*
X194827000Y-93918552D01*
X194827000Y-91581447D01*
X194843201Y-91500000D01*
X194827000Y-91418552D01*
X194827000Y-73581448D01*
X194843201Y-73500000D01*
X194779016Y-73177321D01*
X194642370Y-72972815D01*
X194642368Y-72972813D01*
X194596233Y-72903767D01*
X194527186Y-72857632D01*
X192392372Y-70722819D01*
X192346233Y-70653767D01*
X192072679Y-70470984D01*
X191831448Y-70423000D01*
X191831444Y-70423000D01*
X191750000Y-70406800D01*
X191668556Y-70423000D01*
X182592554Y-70423000D01*
X181327000Y-69157447D01*
X181327000Y-68797006D01*
X181363600Y-68797006D01*
X181491189Y-68771627D01*
X181599354Y-68699354D01*
X181671627Y-68591189D01*
X181697006Y-68463600D01*
X181697006Y-66736400D01*
X181671627Y-66608811D01*
X181599354Y-66500646D01*
X181491189Y-66428373D01*
X181363600Y-66402994D01*
X181129347Y-66402994D01*
X181274947Y-66342688D01*
X181706821Y-65948490D01*
X181770000Y-65813687D01*
X181833179Y-65948490D01*
X182265053Y-66342688D01*
X182587241Y-66476135D01*
X182575451Y-66478480D01*
X182181625Y-66741625D01*
X181918480Y-67135451D01*
X181826075Y-67600000D01*
X181918480Y-68064549D01*
X182181625Y-68458375D01*
X182575451Y-68721520D01*
X182922738Y-68790600D01*
X183157262Y-68790600D01*
X183504549Y-68721520D01*
X183898375Y-68458375D01*
X184161520Y-68064549D01*
X184253925Y-67600000D01*
X184161520Y-67135451D01*
X183898375Y-66741625D01*
X183504549Y-66478480D01*
X183492759Y-66476135D01*
X183814947Y-66342688D01*
X184246821Y-65948490D01*
X184310000Y-65813687D01*
X184373179Y-65948490D01*
X184805053Y-66342688D01*
X185127241Y-66476135D01*
X185115451Y-66478480D01*
X184721625Y-66741625D01*
X184458480Y-67135451D01*
X184366075Y-67600000D01*
X184458480Y-68064549D01*
X184721625Y-68458375D01*
X185115451Y-68721520D01*
X185179556Y-68734271D01*
X185254126Y-68845874D01*
X185403638Y-68945775D01*
X185580000Y-68980855D01*
X185756361Y-68945775D01*
X185905874Y-68845874D01*
X185980445Y-68734271D01*
X186044549Y-68721520D01*
X186438375Y-68458375D01*
X186701520Y-68064549D01*
X186793925Y-67600000D01*
X186701520Y-67135451D01*
X186438375Y-66741625D01*
X186044549Y-66478480D01*
X186032759Y-66476135D01*
X186354947Y-66342688D01*
X186786821Y-65948490D01*
X187034968Y-65419027D01*
X186914469Y-65187000D01*
X185707000Y-65187000D01*
X185707000Y-65207000D01*
X185453000Y-65207000D01*
X185453000Y-65187000D01*
X183167000Y-65187000D01*
X183167000Y-65207000D01*
X182913000Y-65207000D01*
X182913000Y-65187000D01*
X180627000Y-65187000D01*
X180627000Y-65207000D01*
X180373000Y-65207000D01*
X180373000Y-65187000D01*
X179165531Y-65187000D01*
X179045032Y-65419027D01*
X179293179Y-65948490D01*
X179725053Y-66342688D01*
X179870653Y-66402994D01*
X179636400Y-66402994D01*
X179508811Y-66428373D01*
X179400646Y-66500646D01*
X179328373Y-66608811D01*
X179302994Y-66736400D01*
X179302994Y-68463600D01*
X179328373Y-68591189D01*
X179400646Y-68699354D01*
X179508811Y-68771627D01*
X179636400Y-68797006D01*
X179673000Y-68797006D01*
X179673000Y-69418556D01*
X179656800Y-69500000D01*
X179673000Y-69581444D01*
X179673000Y-69581447D01*
X179720984Y-69822678D01*
X179903767Y-70096233D01*
X179972819Y-70142372D01*
X181607630Y-71777184D01*
X181653767Y-71846233D01*
X181927321Y-72029016D01*
X182168552Y-72077000D01*
X182168556Y-72077000D01*
X182250000Y-72093200D01*
X182331444Y-72077000D01*
X191407447Y-72077000D01*
X193173001Y-73842556D01*
X193173000Y-90673000D01*
X193168552Y-90673000D01*
X192927321Y-90720984D01*
X192653767Y-90903767D01*
X192470984Y-91177321D01*
X192406799Y-91500000D01*
X192470984Y-91822679D01*
X192653767Y-92096233D01*
X192927321Y-92279016D01*
X193168552Y-92327000D01*
X193173001Y-92327000D01*
X193173000Y-93657446D01*
X190875000Y-95955446D01*
X190277184Y-95357631D01*
X190072678Y-95220984D01*
X189750000Y-95156800D01*
X189427322Y-95220984D01*
X189153767Y-95403767D01*
X188970984Y-95677322D01*
X188906800Y-96000000D01*
X188970984Y-96322678D01*
X189107631Y-96527184D01*
X189705446Y-97125000D01*
X185407447Y-101423000D01*
X177577000Y-101423000D01*
X177577000Y-96668552D01*
X177529016Y-96427321D01*
X177346233Y-96153767D01*
X177072679Y-95970984D01*
X176750000Y-95906799D01*
X176427322Y-95970984D01*
X176153768Y-96153767D01*
X175970984Y-96427321D01*
X175923000Y-96668552D01*
X175923000Y-97397132D01*
X175923001Y-97397137D01*
X175923000Y-101423000D01*
X150092554Y-101423000D01*
X149327000Y-100657447D01*
X149327000Y-99481442D01*
X149343200Y-99399999D01*
X149340366Y-99385750D01*
X152115000Y-99385750D01*
X152115000Y-100076309D01*
X152211673Y-100309698D01*
X152390301Y-100488327D01*
X152623690Y-100585000D01*
X153314250Y-100585000D01*
X153473000Y-100426250D01*
X153473000Y-99227000D01*
X152273750Y-99227000D01*
X152115000Y-99385750D01*
X149340366Y-99385750D01*
X149327000Y-99318557D01*
X149327000Y-98123691D01*
X152115000Y-98123691D01*
X152115000Y-98814250D01*
X152273750Y-98973000D01*
X153473000Y-98973000D01*
X153473000Y-97773750D01*
X153727000Y-97773750D01*
X153727000Y-98973000D01*
X153747000Y-98973000D01*
X153747000Y-99227000D01*
X153727000Y-99227000D01*
X153727000Y-100426250D01*
X153885750Y-100585000D01*
X154576310Y-100585000D01*
X154809699Y-100488327D01*
X154988327Y-100309698D01*
X155085000Y-100076309D01*
X155085000Y-99639623D01*
X155291431Y-99948569D01*
X155680758Y-100208709D01*
X156024080Y-100277000D01*
X156255920Y-100277000D01*
X156599242Y-100208709D01*
X156988569Y-99948569D01*
X157248709Y-99559242D01*
X157340058Y-99100000D01*
X157248709Y-98640758D01*
X156988569Y-98251431D01*
X156702000Y-98059952D01*
X156702000Y-92826134D01*
X156866321Y-92661813D01*
X156977000Y-92394609D01*
X156977000Y-92105391D01*
X156866321Y-91838187D01*
X156661813Y-91633679D01*
X156394609Y-91523000D01*
X156105391Y-91523000D01*
X155838187Y-91633679D01*
X155633679Y-91838187D01*
X155523000Y-92105391D01*
X155523000Y-92394609D01*
X155633679Y-92661813D01*
X155798000Y-92826134D01*
X155798001Y-97967970D01*
X155680758Y-97991291D01*
X155291431Y-98251431D01*
X155085000Y-98560377D01*
X155085000Y-98123691D01*
X154988327Y-97890302D01*
X154809699Y-97711673D01*
X154576310Y-97615000D01*
X153885750Y-97615000D01*
X153727000Y-97773750D01*
X153473000Y-97773750D01*
X153314250Y-97615000D01*
X152623690Y-97615000D01*
X152390301Y-97711673D01*
X152211673Y-97890302D01*
X152115000Y-98123691D01*
X149327000Y-98123691D01*
X149327000Y-83055391D01*
X149773000Y-83055391D01*
X149773000Y-83344609D01*
X149883679Y-83611813D01*
X150048001Y-83776135D01*
X150048000Y-87855482D01*
X150039145Y-87900000D01*
X150048000Y-87944517D01*
X150074225Y-88076361D01*
X150174126Y-88225874D01*
X150211869Y-88251093D01*
X152848908Y-90888133D01*
X152874126Y-90925874D01*
X152911866Y-90951091D01*
X153023638Y-91025775D01*
X153200000Y-91060855D01*
X153244518Y-91052000D01*
X157712776Y-91052000D01*
X158228001Y-91567225D01*
X158228000Y-97989850D01*
X158220758Y-97991291D01*
X157831431Y-98251431D01*
X157571291Y-98640758D01*
X157479942Y-99100000D01*
X157571291Y-99559242D01*
X157831431Y-99948569D01*
X158220758Y-100208709D01*
X158564080Y-100277000D01*
X158795920Y-100277000D01*
X159139242Y-100208709D01*
X159528569Y-99948569D01*
X159788709Y-99559242D01*
X159880058Y-99100000D01*
X159788709Y-98640758D01*
X159528569Y-98251431D01*
X159139242Y-97991291D01*
X159132000Y-97989850D01*
X159132000Y-91424518D01*
X159140855Y-91380000D01*
X159105775Y-91203638D01*
X159054147Y-91126372D01*
X159005874Y-91054126D01*
X158968131Y-91028907D01*
X158251093Y-90311869D01*
X158225874Y-90274126D01*
X158076362Y-90174225D01*
X157944518Y-90148000D01*
X157900000Y-90139145D01*
X157855482Y-90148000D01*
X153387225Y-90148000D01*
X150952000Y-87712776D01*
X150952000Y-83776134D01*
X151116321Y-83611813D01*
X151227000Y-83344609D01*
X151227000Y-83055391D01*
X151116321Y-82788187D01*
X150911813Y-82583679D01*
X150644609Y-82473000D01*
X150355391Y-82473000D01*
X150088187Y-82583679D01*
X149883679Y-82788187D01*
X149773000Y-83055391D01*
X149327000Y-83055391D01*
X149327000Y-82342553D01*
X149542368Y-82127185D01*
X151342554Y-80327000D01*
X160831448Y-80327000D01*
X161072679Y-80279016D01*
X161346233Y-80096233D01*
X161529016Y-79822679D01*
X161593201Y-79500000D01*
X161529016Y-79177321D01*
X161346233Y-78903767D01*
X161072679Y-78720984D01*
X160831448Y-78673000D01*
X151081444Y-78673000D01*
X151000000Y-78656800D01*
X150918556Y-78673000D01*
X150918552Y-78673000D01*
X150677321Y-78720984D01*
X150403767Y-78903767D01*
X150357630Y-78972816D01*
X148372815Y-80957632D01*
X147972819Y-81357628D01*
X147903767Y-81403767D01*
X147720984Y-81677322D01*
X147673000Y-81918553D01*
X147673000Y-81918556D01*
X147656800Y-82000000D01*
X147673000Y-82081444D01*
X147673001Y-96573975D01*
X147608709Y-96250758D01*
X147348569Y-95861431D01*
X146959242Y-95601291D01*
X146615920Y-95533000D01*
X146384080Y-95533000D01*
X146040758Y-95601291D01*
X145651431Y-95861431D01*
X145391291Y-96250758D01*
X145299942Y-96710000D01*
X100402000Y-96710000D01*
X100402000Y-83700000D01*
X104366594Y-83700000D01*
X104366594Y-86300000D01*
X104391973Y-86427589D01*
X104464246Y-86535754D01*
X104572411Y-86608027D01*
X104700000Y-86633406D01*
X107300000Y-86633406D01*
X107427589Y-86608027D01*
X107535754Y-86535754D01*
X107608027Y-86427589D01*
X107628035Y-86327000D01*
X119050340Y-86327000D01*
X126849254Y-94125915D01*
X126923287Y-94236713D01*
X127362230Y-94530006D01*
X127749304Y-94607000D01*
X127749307Y-94607000D01*
X127879999Y-94632996D01*
X128010691Y-94607000D01*
X129630696Y-94607000D01*
X130017770Y-94530006D01*
X130456713Y-94236713D01*
X130750006Y-93797770D01*
X130852997Y-93280000D01*
X130750006Y-92762230D01*
X130507972Y-92400000D01*
X132966594Y-92400000D01*
X132966594Y-94000000D01*
X132991973Y-94127589D01*
X133064246Y-94235754D01*
X133172411Y-94308027D01*
X133300000Y-94333406D01*
X134900000Y-94333406D01*
X135027589Y-94308027D01*
X135135754Y-94235754D01*
X135154468Y-94207745D01*
X136771861Y-94207745D01*
X136845995Y-94453864D01*
X137383223Y-94646965D01*
X137953454Y-94619778D01*
X138354005Y-94453864D01*
X138428139Y-94207745D01*
X137600000Y-93379605D01*
X136771861Y-94207745D01*
X135154468Y-94207745D01*
X135208027Y-94127589D01*
X135233406Y-94000000D01*
X135233406Y-92983223D01*
X136153035Y-92983223D01*
X136180222Y-93553454D01*
X136346136Y-93954005D01*
X136592255Y-94028139D01*
X137420395Y-93200000D01*
X137779605Y-93200000D01*
X138607745Y-94028139D01*
X138853864Y-93954005D01*
X139046965Y-93416777D01*
X139040444Y-93280000D01*
X141050921Y-93280000D01*
X141138389Y-93719733D01*
X141387478Y-94092522D01*
X141760267Y-94341611D01*
X142089001Y-94407000D01*
X142310999Y-94407000D01*
X142639733Y-94341611D01*
X143012522Y-94092522D01*
X143261611Y-93719733D01*
X143349079Y-93280000D01*
X143261611Y-92840267D01*
X143012522Y-92467478D01*
X142639733Y-92218389D01*
X142310999Y-92153000D01*
X142089001Y-92153000D01*
X141760267Y-92218389D01*
X141387478Y-92467478D01*
X141138389Y-92840267D01*
X141050921Y-93280000D01*
X139040444Y-93280000D01*
X139019778Y-92846546D01*
X138853864Y-92445995D01*
X138607745Y-92371861D01*
X137779605Y-93200000D01*
X137420395Y-93200000D01*
X136592255Y-92371861D01*
X136346136Y-92445995D01*
X136153035Y-92983223D01*
X135233406Y-92983223D01*
X135233406Y-92400000D01*
X135208027Y-92272411D01*
X135154469Y-92192255D01*
X136771861Y-92192255D01*
X137600000Y-93020395D01*
X138428139Y-92192255D01*
X138354005Y-91946136D01*
X137816777Y-91753035D01*
X137246546Y-91780222D01*
X136845995Y-91946136D01*
X136771861Y-92192255D01*
X135154469Y-92192255D01*
X135135754Y-92164246D01*
X135027589Y-92091973D01*
X134900000Y-92066594D01*
X133300000Y-92066594D01*
X133172411Y-92091973D01*
X133064246Y-92164246D01*
X132991973Y-92272411D01*
X132966594Y-92400000D01*
X130507972Y-92400000D01*
X130456713Y-92323287D01*
X130037099Y-92042909D01*
X130355134Y-91892389D01*
X130731041Y-91477423D01*
X130891904Y-91089039D01*
X130769915Y-90867000D01*
X129627000Y-90867000D01*
X129627000Y-90887000D01*
X129373000Y-90887000D01*
X129373000Y-90867000D01*
X128230085Y-90867000D01*
X128108096Y-91089039D01*
X128268959Y-91477423D01*
X128644866Y-91892389D01*
X128772931Y-91953000D01*
X128429661Y-91953000D01*
X127216661Y-90740000D01*
X141050921Y-90740000D01*
X141138389Y-91179733D01*
X141387478Y-91552522D01*
X141760267Y-91801611D01*
X142089001Y-91867000D01*
X142310999Y-91867000D01*
X142639733Y-91801611D01*
X143012522Y-91552522D01*
X143261611Y-91179733D01*
X143349079Y-90740000D01*
X143261611Y-90300267D01*
X143012522Y-89927478D01*
X142639733Y-89678389D01*
X142310999Y-89613000D01*
X142089001Y-89613000D01*
X141760267Y-89678389D01*
X141387478Y-89927478D01*
X141138389Y-90300267D01*
X141050921Y-90740000D01*
X127216661Y-90740000D01*
X126867622Y-90390961D01*
X128108096Y-90390961D01*
X128230085Y-90613000D01*
X129373000Y-90613000D01*
X129373000Y-90593000D01*
X129627000Y-90593000D01*
X129627000Y-90613000D01*
X130769915Y-90613000D01*
X130891904Y-90390961D01*
X130731041Y-90002577D01*
X130355134Y-89587611D01*
X129849041Y-89348086D01*
X129627002Y-89469370D01*
X129627002Y-89323817D01*
X129939733Y-89261611D01*
X130312522Y-89012522D01*
X130561611Y-88639733D01*
X130649079Y-88200000D01*
X141050921Y-88200000D01*
X141138389Y-88639733D01*
X141387478Y-89012522D01*
X141760267Y-89261611D01*
X142089001Y-89327000D01*
X142310999Y-89327000D01*
X142639733Y-89261611D01*
X143012522Y-89012522D01*
X143261611Y-88639733D01*
X143349079Y-88200000D01*
X143261611Y-87760267D01*
X143012522Y-87387478D01*
X142639733Y-87138389D01*
X142310999Y-87073000D01*
X142089001Y-87073000D01*
X141760267Y-87138389D01*
X141387478Y-87387478D01*
X141138389Y-87760267D01*
X141050921Y-88200000D01*
X130649079Y-88200000D01*
X130561611Y-87760267D01*
X130312522Y-87387478D01*
X129939733Y-87138389D01*
X129610999Y-87073000D01*
X129389001Y-87073000D01*
X129060267Y-87138389D01*
X128687478Y-87387478D01*
X128438389Y-87760267D01*
X128350921Y-88200000D01*
X128438389Y-88639733D01*
X128687478Y-89012522D01*
X129060267Y-89261611D01*
X129372998Y-89323817D01*
X129372998Y-89469370D01*
X129150959Y-89348086D01*
X128644866Y-89587611D01*
X128268959Y-90002577D01*
X128108096Y-90390961D01*
X126867622Y-90390961D01*
X122136661Y-85660000D01*
X128350921Y-85660000D01*
X128438389Y-86099733D01*
X128687478Y-86472522D01*
X129060267Y-86721611D01*
X129389001Y-86787000D01*
X129610999Y-86787000D01*
X129939733Y-86721611D01*
X130312522Y-86472522D01*
X130561611Y-86099733D01*
X130649079Y-85660000D01*
X141050921Y-85660000D01*
X141138389Y-86099733D01*
X141387478Y-86472522D01*
X141760267Y-86721611D01*
X142089001Y-86787000D01*
X142310999Y-86787000D01*
X142639733Y-86721611D01*
X143012522Y-86472522D01*
X143261611Y-86099733D01*
X143349079Y-85660000D01*
X143261611Y-85220267D01*
X143012522Y-84847478D01*
X142639733Y-84598389D01*
X142310999Y-84533000D01*
X142089001Y-84533000D01*
X141760267Y-84598389D01*
X141387478Y-84847478D01*
X141138389Y-85220267D01*
X141050921Y-85660000D01*
X130649079Y-85660000D01*
X130561611Y-85220267D01*
X130312522Y-84847478D01*
X129939733Y-84598389D01*
X129610999Y-84533000D01*
X129389001Y-84533000D01*
X129060267Y-84598389D01*
X128687478Y-84847478D01*
X128438389Y-85220267D01*
X128350921Y-85660000D01*
X122136661Y-85660000D01*
X120630748Y-84154088D01*
X120556713Y-84043287D01*
X120117770Y-83749994D01*
X119730696Y-83673000D01*
X119730692Y-83673000D01*
X119600000Y-83647004D01*
X119469308Y-83673000D01*
X107628035Y-83673000D01*
X107608027Y-83572411D01*
X107535754Y-83464246D01*
X107427589Y-83391973D01*
X107300000Y-83366594D01*
X104700000Y-83366594D01*
X104572411Y-83391973D01*
X104464246Y-83464246D01*
X104391973Y-83572411D01*
X104366594Y-83700000D01*
X100402000Y-83700000D01*
X100402000Y-83120000D01*
X128350921Y-83120000D01*
X128438389Y-83559733D01*
X128687478Y-83932522D01*
X129060267Y-84181611D01*
X129389001Y-84247000D01*
X129610999Y-84247000D01*
X129939733Y-84181611D01*
X130312522Y-83932522D01*
X130561611Y-83559733D01*
X130649079Y-83120000D01*
X141050921Y-83120000D01*
X141138389Y-83559733D01*
X141387478Y-83932522D01*
X141760267Y-84181611D01*
X142089001Y-84247000D01*
X142310999Y-84247000D01*
X142639733Y-84181611D01*
X143012522Y-83932522D01*
X143261611Y-83559733D01*
X143349079Y-83120000D01*
X143261611Y-82680267D01*
X143012522Y-82307478D01*
X142639733Y-82058389D01*
X142310999Y-81993000D01*
X142089001Y-81993000D01*
X141760267Y-82058389D01*
X141387478Y-82307478D01*
X141138389Y-82680267D01*
X141050921Y-83120000D01*
X130649079Y-83120000D01*
X130561611Y-82680267D01*
X130312522Y-82307478D01*
X129939733Y-82058389D01*
X129610999Y-81993000D01*
X129389001Y-81993000D01*
X129060267Y-82058389D01*
X128687478Y-82307478D01*
X128438389Y-82680267D01*
X128350921Y-83120000D01*
X100402000Y-83120000D01*
X100402000Y-81369459D01*
X104810146Y-81369459D01*
X104945504Y-81667455D01*
X105663880Y-81944066D01*
X106433427Y-81924710D01*
X107054496Y-81667455D01*
X107189854Y-81369459D01*
X106000000Y-80179605D01*
X104810146Y-81369459D01*
X100402000Y-81369459D01*
X100402000Y-79663880D01*
X104055934Y-79663880D01*
X104075290Y-80433427D01*
X104332545Y-81054496D01*
X104630541Y-81189854D01*
X105820395Y-80000000D01*
X106179605Y-80000000D01*
X107369459Y-81189854D01*
X107667455Y-81054496D01*
X107850159Y-80580000D01*
X128350921Y-80580000D01*
X128438389Y-81019733D01*
X128687478Y-81392522D01*
X129060267Y-81641611D01*
X129389001Y-81707000D01*
X129610999Y-81707000D01*
X129939733Y-81641611D01*
X130312522Y-81392522D01*
X130561611Y-81019733D01*
X130649079Y-80580000D01*
X141050921Y-80580000D01*
X141138389Y-81019733D01*
X141387478Y-81392522D01*
X141760267Y-81641611D01*
X142089001Y-81707000D01*
X142310999Y-81707000D01*
X142639733Y-81641611D01*
X143012522Y-81392522D01*
X143261611Y-81019733D01*
X143349079Y-80580000D01*
X143261611Y-80140267D01*
X143012522Y-79767478D01*
X142639733Y-79518389D01*
X142310999Y-79453000D01*
X142089001Y-79453000D01*
X141760267Y-79518389D01*
X141387478Y-79767478D01*
X141138389Y-80140267D01*
X141050921Y-80580000D01*
X130649079Y-80580000D01*
X130561611Y-80140267D01*
X130312522Y-79767478D01*
X129939733Y-79518389D01*
X129610999Y-79453000D01*
X129389001Y-79453000D01*
X129060267Y-79518389D01*
X128687478Y-79767478D01*
X128438389Y-80140267D01*
X128350921Y-80580000D01*
X107850159Y-80580000D01*
X107944066Y-80336120D01*
X107924710Y-79566573D01*
X107667455Y-78945504D01*
X107369459Y-78810146D01*
X106179605Y-80000000D01*
X105820395Y-80000000D01*
X104630541Y-78810146D01*
X104332545Y-78945504D01*
X104055934Y-79663880D01*
X100402000Y-79663880D01*
X100402000Y-78630541D01*
X104810146Y-78630541D01*
X106000000Y-79820395D01*
X107189854Y-78630541D01*
X107054496Y-78332545D01*
X106336120Y-78055934D01*
X105566573Y-78075290D01*
X104945504Y-78332545D01*
X104810146Y-78630541D01*
X100402000Y-78630541D01*
X100402000Y-75785750D01*
X128065000Y-75785750D01*
X128065000Y-76426310D01*
X128161673Y-76659699D01*
X128340302Y-76838327D01*
X128573691Y-76935000D01*
X129214250Y-76935000D01*
X129372998Y-76776252D01*
X129372998Y-76916183D01*
X129060267Y-76978389D01*
X128687478Y-77227478D01*
X128438389Y-77600267D01*
X128350921Y-78040000D01*
X128438389Y-78479733D01*
X128687478Y-78852522D01*
X129060267Y-79101611D01*
X129389001Y-79167000D01*
X129610999Y-79167000D01*
X129939733Y-79101611D01*
X130312522Y-78852522D01*
X130561611Y-78479733D01*
X130649079Y-78040000D01*
X130561611Y-77600267D01*
X130312522Y-77227478D01*
X129939733Y-76978389D01*
X129627002Y-76916183D01*
X129627002Y-76776252D01*
X129785750Y-76935000D01*
X130426309Y-76935000D01*
X130659698Y-76838327D01*
X130838327Y-76659699D01*
X130935000Y-76426310D01*
X130935000Y-75785750D01*
X130776250Y-75627000D01*
X129627000Y-75627000D01*
X129627000Y-75647000D01*
X129373000Y-75647000D01*
X129373000Y-75627000D01*
X128223750Y-75627000D01*
X128065000Y-75785750D01*
X100402000Y-75785750D01*
X100402000Y-75500000D01*
X141050921Y-75500000D01*
X141138389Y-75939733D01*
X141387478Y-76312522D01*
X141760267Y-76561611D01*
X142089001Y-76627000D01*
X142310999Y-76627000D01*
X142625265Y-76564489D01*
X143648776Y-77588000D01*
X143253414Y-77588000D01*
X143012522Y-77227478D01*
X142639733Y-76978389D01*
X142310999Y-76913000D01*
X142089001Y-76913000D01*
X141760267Y-76978389D01*
X141387478Y-77227478D01*
X141138389Y-77600267D01*
X141050921Y-78040000D01*
X141138389Y-78479733D01*
X141387478Y-78852522D01*
X141760267Y-79101611D01*
X142089001Y-79167000D01*
X142310999Y-79167000D01*
X142639733Y-79101611D01*
X143012522Y-78852522D01*
X143253414Y-78492000D01*
X143852776Y-78492000D01*
X145798001Y-80437226D01*
X145798000Y-85662766D01*
X145678047Y-85782719D01*
X145640307Y-85807936D01*
X145615090Y-85845676D01*
X145615089Y-85845677D01*
X145540405Y-85957449D01*
X145505325Y-86133810D01*
X145514181Y-86178332D01*
X145514180Y-86807486D01*
X145349859Y-86971807D01*
X145239180Y-87239011D01*
X145239180Y-87528229D01*
X145349859Y-87795433D01*
X145554367Y-87999941D01*
X145821571Y-88110620D01*
X146110789Y-88110620D01*
X146377993Y-87999941D01*
X146582501Y-87795433D01*
X146693180Y-87528229D01*
X146693180Y-87251990D01*
X146944609Y-87251990D01*
X147211813Y-87141311D01*
X147416321Y-86936803D01*
X147527000Y-86669599D01*
X147527000Y-86380381D01*
X147416321Y-86113177D01*
X147252000Y-85948856D01*
X147252000Y-80144516D01*
X147260855Y-80099999D01*
X147240964Y-80000000D01*
X147225775Y-79923638D01*
X147125874Y-79774126D01*
X147088131Y-79748907D01*
X144944615Y-77605391D01*
X154272998Y-77605391D01*
X154272998Y-77894609D01*
X154383677Y-78161813D01*
X154588185Y-78366321D01*
X154855389Y-78477000D01*
X155144607Y-78477000D01*
X155411811Y-78366321D01*
X155576132Y-78202000D01*
X156455482Y-78202000D01*
X156500000Y-78210855D01*
X156544518Y-78202000D01*
X156676362Y-78175775D01*
X156825874Y-78075874D01*
X156851094Y-78038130D01*
X156937224Y-77952000D01*
X161812776Y-77952000D01*
X164298001Y-80437226D01*
X164298000Y-95382775D01*
X161685382Y-97995394D01*
X161679242Y-97991291D01*
X161335920Y-97923000D01*
X161104080Y-97923000D01*
X160760758Y-97991291D01*
X160371431Y-98251431D01*
X160111291Y-98640758D01*
X160019942Y-99100000D01*
X160111291Y-99559242D01*
X160371431Y-99948569D01*
X160760758Y-100208709D01*
X161104080Y-100277000D01*
X161335920Y-100277000D01*
X161679242Y-100208709D01*
X162068569Y-99948569D01*
X162328709Y-99559242D01*
X162420058Y-99100000D01*
X162328709Y-98640758D01*
X162324606Y-98634618D01*
X165038134Y-95921091D01*
X165075874Y-95895874D01*
X165175775Y-95746362D01*
X165202000Y-95614518D01*
X165202000Y-95614517D01*
X165210855Y-95570000D01*
X165202000Y-95525482D01*
X165202000Y-94380000D01*
X168399942Y-94380000D01*
X168491291Y-94839242D01*
X168751431Y-95228569D01*
X169140758Y-95488709D01*
X169484080Y-95557000D01*
X169715920Y-95557000D01*
X170059242Y-95488709D01*
X170448569Y-95228569D01*
X170708709Y-94839242D01*
X170800058Y-94380000D01*
X170708709Y-93920758D01*
X170448569Y-93531431D01*
X170059242Y-93271291D01*
X169715920Y-93203000D01*
X169484080Y-93203000D01*
X169140758Y-93271291D01*
X168751431Y-93531431D01*
X168491291Y-93920758D01*
X168399942Y-94380000D01*
X165202000Y-94380000D01*
X165202000Y-89585750D01*
X168115000Y-89585750D01*
X168115000Y-90276310D01*
X168211673Y-90509699D01*
X168390302Y-90688327D01*
X168623691Y-90785000D01*
X169060377Y-90785000D01*
X168751431Y-90991431D01*
X168491291Y-91380758D01*
X168399942Y-91840000D01*
X168491291Y-92299242D01*
X168751431Y-92688569D01*
X169140758Y-92948709D01*
X169484080Y-93017000D01*
X169715920Y-93017000D01*
X170059242Y-92948709D01*
X170448569Y-92688569D01*
X170708709Y-92299242D01*
X170800058Y-91840000D01*
X170708709Y-91380758D01*
X170448569Y-90991431D01*
X170139623Y-90785000D01*
X170576309Y-90785000D01*
X170809698Y-90688327D01*
X170988327Y-90509699D01*
X171085000Y-90276310D01*
X171085000Y-89585750D01*
X170926250Y-89427000D01*
X169727000Y-89427000D01*
X169727000Y-89447000D01*
X169473000Y-89447000D01*
X169473000Y-89427000D01*
X168273750Y-89427000D01*
X168115000Y-89585750D01*
X165202000Y-89585750D01*
X165202000Y-88323690D01*
X168115000Y-88323690D01*
X168115000Y-89014250D01*
X168273750Y-89173000D01*
X169473000Y-89173000D01*
X169473000Y-87973750D01*
X169727000Y-87973750D01*
X169727000Y-89173000D01*
X170926250Y-89173000D01*
X171085000Y-89014250D01*
X171085000Y-88323690D01*
X170988327Y-88090301D01*
X170809698Y-87911673D01*
X170576309Y-87815000D01*
X169885750Y-87815000D01*
X169727000Y-87973750D01*
X169473000Y-87973750D01*
X169314250Y-87815000D01*
X168623691Y-87815000D01*
X168390302Y-87911673D01*
X168211673Y-88090301D01*
X168115000Y-88323690D01*
X165202000Y-88323690D01*
X165202000Y-80591224D01*
X175848918Y-91238143D01*
X175874136Y-91275884D01*
X176023648Y-91375785D01*
X176155492Y-91402010D01*
X176155493Y-91402010D01*
X176200009Y-91410865D01*
X176244526Y-91402010D01*
X179262786Y-91402010D01*
X179398908Y-91538133D01*
X179424126Y-91575874D01*
X179461866Y-91601091D01*
X179573638Y-91675775D01*
X179750000Y-91710855D01*
X179794518Y-91702000D01*
X180673866Y-91702000D01*
X180838187Y-91866321D01*
X181105391Y-91977000D01*
X181394609Y-91977000D01*
X181661813Y-91866321D01*
X181866321Y-91661813D01*
X181977000Y-91394609D01*
X181977000Y-91105391D01*
X181866321Y-90838187D01*
X181661813Y-90633679D01*
X181394609Y-90523000D01*
X181105391Y-90523000D01*
X180977000Y-90576181D01*
X180977000Y-90355391D01*
X180866321Y-90088187D01*
X180661813Y-89883679D01*
X180394609Y-89773000D01*
X180105391Y-89773000D01*
X179838187Y-89883679D01*
X179673866Y-90048000D01*
X176687225Y-90048000D01*
X162851093Y-76211869D01*
X162825874Y-76174126D01*
X162676362Y-76074225D01*
X162544518Y-76048000D01*
X162500000Y-76039145D01*
X162455482Y-76048000D01*
X157703228Y-76048000D01*
X157616321Y-75838187D01*
X157411813Y-75633679D01*
X157144609Y-75523000D01*
X156855391Y-75523000D01*
X156588187Y-75633679D01*
X156383679Y-75838187D01*
X156273000Y-76105391D01*
X156273000Y-76312252D01*
X156153949Y-76262940D01*
X155864731Y-76262940D01*
X155597527Y-76373619D01*
X155393019Y-76578127D01*
X155282340Y-76845331D01*
X155282340Y-77080051D01*
X155144607Y-77023000D01*
X154855389Y-77023000D01*
X154588185Y-77133679D01*
X154383677Y-77338187D01*
X154272998Y-77605391D01*
X144944615Y-77605391D01*
X143264489Y-75925265D01*
X143349079Y-75500000D01*
X143261611Y-75060267D01*
X143012522Y-74687478D01*
X142639733Y-74438389D01*
X142310999Y-74373000D01*
X142089001Y-74373000D01*
X141760267Y-74438389D01*
X141387478Y-74687478D01*
X141138389Y-75060267D01*
X141050921Y-75500000D01*
X100402000Y-75500000D01*
X100402000Y-74573690D01*
X128065000Y-74573690D01*
X128065000Y-75214250D01*
X128223750Y-75373000D01*
X129373000Y-75373000D01*
X129373000Y-74223750D01*
X129627000Y-74223750D01*
X129627000Y-75373000D01*
X130776250Y-75373000D01*
X130935000Y-75214250D01*
X130935000Y-74573690D01*
X130838327Y-74340301D01*
X130659698Y-74161673D01*
X130426309Y-74065000D01*
X129785750Y-74065000D01*
X129627000Y-74223750D01*
X129373000Y-74223750D01*
X129214250Y-74065000D01*
X128573691Y-74065000D01*
X128340302Y-74161673D01*
X128161673Y-74340301D01*
X128065000Y-74573690D01*
X100402000Y-74573690D01*
X100402000Y-64148001D01*
X101873000Y-64148001D01*
X101873000Y-65391999D01*
X102349057Y-66541303D01*
X103228697Y-67420943D01*
X104378001Y-67897000D01*
X105621999Y-67897000D01*
X106771303Y-67420943D01*
X107650943Y-66541303D01*
X108127000Y-65391999D01*
X108127000Y-64700000D01*
X130616594Y-64700000D01*
X130616594Y-67300000D01*
X130641973Y-67427589D01*
X130714246Y-67535754D01*
X130822411Y-67608027D01*
X130950000Y-67633406D01*
X133550000Y-67633406D01*
X133677589Y-67608027D01*
X133785754Y-67535754D01*
X133858027Y-67427589D01*
X133883406Y-67300000D01*
X133883406Y-65676370D01*
X135623000Y-65676370D01*
X135623000Y-66323630D01*
X135870696Y-66921622D01*
X136328378Y-67379304D01*
X136926370Y-67627000D01*
X137573630Y-67627000D01*
X138171622Y-67379304D01*
X138629304Y-66921622D01*
X138877000Y-66323630D01*
X138877000Y-65676370D01*
X140623000Y-65676370D01*
X140623000Y-66323630D01*
X140870696Y-66921622D01*
X141328378Y-67379304D01*
X141926370Y-67627000D01*
X142573630Y-67627000D01*
X143171622Y-67379304D01*
X143629304Y-66921622D01*
X143877000Y-66323630D01*
X143877000Y-65676370D01*
X145623000Y-65676370D01*
X145623000Y-66323630D01*
X145870696Y-66921622D01*
X146328378Y-67379304D01*
X146926370Y-67627000D01*
X147573630Y-67627000D01*
X148171622Y-67379304D01*
X148181467Y-67369459D01*
X151060146Y-67369459D01*
X151195504Y-67667455D01*
X151913880Y-67944066D01*
X152683427Y-67924710D01*
X153304496Y-67667455D01*
X153439854Y-67369459D01*
X152250000Y-66179605D01*
X151060146Y-67369459D01*
X148181467Y-67369459D01*
X148629304Y-66921622D01*
X148877000Y-66323630D01*
X148877000Y-65676370D01*
X148871827Y-65663880D01*
X150305934Y-65663880D01*
X150325290Y-66433427D01*
X150582545Y-67054496D01*
X150880541Y-67189854D01*
X152070395Y-66000000D01*
X152429605Y-66000000D01*
X153619459Y-67189854D01*
X153917455Y-67054496D01*
X154194066Y-66336120D01*
X154177472Y-65676370D01*
X155623000Y-65676370D01*
X155623000Y-66323630D01*
X155870696Y-66921622D01*
X156328378Y-67379304D01*
X156926370Y-67627000D01*
X157573630Y-67627000D01*
X158171622Y-67379304D01*
X158629304Y-66921622D01*
X158823827Y-66452000D01*
X159297476Y-66452000D01*
X170048000Y-77202525D01*
X170048001Y-80403644D01*
X169849467Y-80485879D01*
X169644959Y-80690387D01*
X169534280Y-80957591D01*
X169534280Y-81246809D01*
X169644959Y-81514013D01*
X169849467Y-81718521D01*
X169999942Y-81780850D01*
X169912742Y-81991371D01*
X169912742Y-82280589D01*
X170023421Y-82547793D01*
X170227929Y-82752301D01*
X170495133Y-82862980D01*
X170784351Y-82862980D01*
X171051555Y-82752301D01*
X171256063Y-82547793D01*
X171366742Y-82280589D01*
X171366742Y-82060168D01*
X171465516Y-81912343D01*
X171491741Y-81780499D01*
X171500596Y-81735982D01*
X171491741Y-81691464D01*
X171491741Y-78295717D01*
X180773000Y-78295717D01*
X180773000Y-78704283D01*
X180929352Y-79081749D01*
X181218251Y-79370648D01*
X181595717Y-79527000D01*
X182004283Y-79527000D01*
X182381749Y-79370648D01*
X182670648Y-79081749D01*
X182827000Y-78704283D01*
X182827000Y-78295717D01*
X182670648Y-77918251D01*
X182552397Y-77800000D01*
X183266594Y-77800000D01*
X183266594Y-79200000D01*
X183291973Y-79327589D01*
X183364246Y-79435754D01*
X183472411Y-79508027D01*
X183600000Y-79533406D01*
X185000000Y-79533406D01*
X185127589Y-79508027D01*
X185235754Y-79435754D01*
X185308027Y-79327589D01*
X185333406Y-79200000D01*
X185333406Y-77800000D01*
X185308027Y-77672411D01*
X185235754Y-77564246D01*
X185127589Y-77491973D01*
X185000000Y-77466594D01*
X183600000Y-77466594D01*
X183472411Y-77491973D01*
X183364246Y-77564246D01*
X183291973Y-77672411D01*
X183266594Y-77800000D01*
X182552397Y-77800000D01*
X182381749Y-77629352D01*
X182004283Y-77473000D01*
X181595717Y-77473000D01*
X181218251Y-77629352D01*
X180929352Y-77918251D01*
X180773000Y-78295717D01*
X171491741Y-78295717D01*
X171491741Y-77303970D01*
X175695635Y-77303970D01*
X175855418Y-77622739D01*
X176646187Y-77932723D01*
X177495387Y-77916497D01*
X178204582Y-77622739D01*
X178364365Y-77303970D01*
X187735635Y-77303970D01*
X187895418Y-77622739D01*
X188686187Y-77932723D01*
X189535387Y-77916497D01*
X190244582Y-77622739D01*
X190404365Y-77303970D01*
X189070000Y-75969605D01*
X187735635Y-77303970D01*
X178364365Y-77303970D01*
X177030000Y-75969605D01*
X175695635Y-77303970D01*
X171491741Y-77303970D01*
X171491741Y-76812159D01*
X171500596Y-76767641D01*
X171465516Y-76591279D01*
X171390832Y-76479507D01*
X171365615Y-76441767D01*
X171327875Y-76416550D01*
X170317512Y-75406187D01*
X174887277Y-75406187D01*
X174903503Y-76255387D01*
X175197261Y-76964582D01*
X175516030Y-77124365D01*
X176850395Y-75790000D01*
X177209605Y-75790000D01*
X178543970Y-77124365D01*
X178862739Y-76964582D01*
X179172723Y-76173813D01*
X179156497Y-75324613D01*
X179061686Y-75095717D01*
X180773000Y-75095717D01*
X180773000Y-75504283D01*
X180929352Y-75881749D01*
X181218251Y-76170648D01*
X181595717Y-76327000D01*
X182004283Y-76327000D01*
X182225726Y-76235275D01*
X183544331Y-76235275D01*
X183606169Y-76471042D01*
X184107122Y-76647419D01*
X184637440Y-76618664D01*
X184993831Y-76471042D01*
X185055669Y-76235275D01*
X184300000Y-75479605D01*
X183544331Y-76235275D01*
X182225726Y-76235275D01*
X182381749Y-76170648D01*
X182670648Y-75881749D01*
X182827000Y-75504283D01*
X182827000Y-75107122D01*
X182952581Y-75107122D01*
X182981336Y-75637440D01*
X183128958Y-75993831D01*
X183364725Y-76055669D01*
X184120395Y-75300000D01*
X184479605Y-75300000D01*
X185235275Y-76055669D01*
X185471042Y-75993831D01*
X185647419Y-75492878D01*
X185642719Y-75406187D01*
X186927277Y-75406187D01*
X186943503Y-76255387D01*
X187237261Y-76964582D01*
X187556030Y-77124365D01*
X188890395Y-75790000D01*
X189249605Y-75790000D01*
X190583970Y-77124365D01*
X190902739Y-76964582D01*
X191212723Y-76173813D01*
X191196497Y-75324613D01*
X190902739Y-74615418D01*
X190583970Y-74455635D01*
X189249605Y-75790000D01*
X188890395Y-75790000D01*
X187556030Y-74455635D01*
X187237261Y-74615418D01*
X186927277Y-75406187D01*
X185642719Y-75406187D01*
X185618664Y-74962560D01*
X185471042Y-74606169D01*
X185235275Y-74544331D01*
X184479605Y-75300000D01*
X184120395Y-75300000D01*
X183364725Y-74544331D01*
X183128958Y-74606169D01*
X182952581Y-75107122D01*
X182827000Y-75107122D01*
X182827000Y-75095717D01*
X182670648Y-74718251D01*
X182381749Y-74429352D01*
X182225727Y-74364725D01*
X183544331Y-74364725D01*
X184300000Y-75120395D01*
X185055669Y-74364725D01*
X185032406Y-74276030D01*
X187735635Y-74276030D01*
X189070000Y-75610395D01*
X190404365Y-74276030D01*
X190244582Y-73957261D01*
X189453813Y-73647277D01*
X188604613Y-73663503D01*
X187895418Y-73957261D01*
X187735635Y-74276030D01*
X185032406Y-74276030D01*
X184993831Y-74128958D01*
X184492878Y-73952581D01*
X183962560Y-73981336D01*
X183606169Y-74128958D01*
X183544331Y-74364725D01*
X182225727Y-74364725D01*
X182004283Y-74273000D01*
X181595717Y-74273000D01*
X181218251Y-74429352D01*
X180929352Y-74718251D01*
X180773000Y-75095717D01*
X179061686Y-75095717D01*
X178862739Y-74615418D01*
X178543970Y-74455635D01*
X177209605Y-75790000D01*
X176850395Y-75790000D01*
X175516030Y-74455635D01*
X175197261Y-74615418D01*
X174887277Y-75406187D01*
X170317512Y-75406187D01*
X169187355Y-74276030D01*
X175695635Y-74276030D01*
X177030000Y-75610395D01*
X178364365Y-74276030D01*
X178204582Y-73957261D01*
X177413813Y-73647277D01*
X176564613Y-73663503D01*
X175855418Y-73957261D01*
X175695635Y-74276030D01*
X169187355Y-74276030D01*
X162702000Y-67790676D01*
X162702000Y-67573827D01*
X163171622Y-67379304D01*
X163629304Y-66921622D01*
X163877000Y-66323630D01*
X163877000Y-65676370D01*
X163629304Y-65078378D01*
X163251899Y-64700973D01*
X179045032Y-64700973D01*
X179165531Y-64933000D01*
X180373000Y-64933000D01*
X180373000Y-63726183D01*
X180627000Y-63726183D01*
X180627000Y-64933000D01*
X182913000Y-64933000D01*
X182913000Y-63726183D01*
X183167000Y-63726183D01*
X183167000Y-64933000D01*
X185453000Y-64933000D01*
X185453000Y-63726183D01*
X185707000Y-63726183D01*
X185707000Y-64933000D01*
X186914469Y-64933000D01*
X187034968Y-64700973D01*
X186883599Y-64378001D01*
X191873000Y-64378001D01*
X191873000Y-65621999D01*
X192349057Y-66771303D01*
X193228697Y-67650943D01*
X194378001Y-68127000D01*
X195621999Y-68127000D01*
X196771303Y-67650943D01*
X197650943Y-66771303D01*
X198127000Y-65621999D01*
X198127000Y-64378001D01*
X197650943Y-63228697D01*
X196771303Y-62349057D01*
X195621999Y-61873000D01*
X194378001Y-61873000D01*
X193228697Y-62349057D01*
X192349057Y-63228697D01*
X191873000Y-64378001D01*
X186883599Y-64378001D01*
X186786821Y-64171510D01*
X186354947Y-63777312D01*
X185939026Y-63605042D01*
X185707000Y-63726183D01*
X185453000Y-63726183D01*
X185220974Y-63605042D01*
X184805053Y-63777312D01*
X184373179Y-64171510D01*
X184310000Y-64306313D01*
X184246821Y-64171510D01*
X183814947Y-63777312D01*
X183399026Y-63605042D01*
X183167000Y-63726183D01*
X182913000Y-63726183D01*
X182680974Y-63605042D01*
X182265053Y-63777312D01*
X181833179Y-64171510D01*
X181770000Y-64306313D01*
X181706821Y-64171510D01*
X181274947Y-63777312D01*
X180859026Y-63605042D01*
X180627000Y-63726183D01*
X180373000Y-63726183D01*
X180140974Y-63605042D01*
X179725053Y-63777312D01*
X179293179Y-64171510D01*
X179045032Y-64700973D01*
X163251899Y-64700973D01*
X163171622Y-64620696D01*
X162573630Y-64373000D01*
X161926370Y-64373000D01*
X161328378Y-64620696D01*
X160870696Y-65078378D01*
X160623000Y-65676370D01*
X160623000Y-66323630D01*
X160747059Y-66623135D01*
X159835793Y-65711869D01*
X159810574Y-65674126D01*
X159661062Y-65574225D01*
X159529218Y-65548000D01*
X159484700Y-65539145D01*
X159440182Y-65548000D01*
X158823827Y-65548000D01*
X158629304Y-65078378D01*
X158171622Y-64620696D01*
X157573630Y-64373000D01*
X156926370Y-64373000D01*
X156328378Y-64620696D01*
X155870696Y-65078378D01*
X155623000Y-65676370D01*
X154177472Y-65676370D01*
X154174710Y-65566573D01*
X153917455Y-64945504D01*
X153619459Y-64810146D01*
X152429605Y-66000000D01*
X152070395Y-66000000D01*
X150880541Y-64810146D01*
X150582545Y-64945504D01*
X150305934Y-65663880D01*
X148871827Y-65663880D01*
X148629304Y-65078378D01*
X148181467Y-64630541D01*
X151060146Y-64630541D01*
X152250000Y-65820395D01*
X153439854Y-64630541D01*
X153304496Y-64332545D01*
X152586120Y-64055934D01*
X151816573Y-64075290D01*
X151195504Y-64332545D01*
X151060146Y-64630541D01*
X148181467Y-64630541D01*
X148171622Y-64620696D01*
X147573630Y-64373000D01*
X146926370Y-64373000D01*
X146328378Y-64620696D01*
X145870696Y-65078378D01*
X145623000Y-65676370D01*
X143877000Y-65676370D01*
X143629304Y-65078378D01*
X143171622Y-64620696D01*
X142573630Y-64373000D01*
X141926370Y-64373000D01*
X141328378Y-64620696D01*
X140870696Y-65078378D01*
X140623000Y-65676370D01*
X138877000Y-65676370D01*
X138629304Y-65078378D01*
X138171622Y-64620696D01*
X137573630Y-64373000D01*
X136926370Y-64373000D01*
X136328378Y-64620696D01*
X135870696Y-65078378D01*
X135623000Y-65676370D01*
X133883406Y-65676370D01*
X133883406Y-64700000D01*
X133858027Y-64572411D01*
X133785754Y-64464246D01*
X133677589Y-64391973D01*
X133550000Y-64366594D01*
X130950000Y-64366594D01*
X130822411Y-64391973D01*
X130714246Y-64464246D01*
X130641973Y-64572411D01*
X130616594Y-64700000D01*
X108127000Y-64700000D01*
X108127000Y-64148001D01*
X107650943Y-62998697D01*
X106771303Y-62119057D01*
X105621999Y-61643000D01*
X104378001Y-61643000D01*
X103228697Y-62119057D01*
X102349057Y-62998697D01*
X101873000Y-64148001D01*
X100402000Y-64148001D01*
X100402000Y-60402000D01*
X199598000Y-60402000D01*
X199598001Y-104598000D01*
X199598001Y-104598000D01*
G37*
X199598001Y-104598000D02*
X100402000Y-104598000D01*
X100402000Y-99378001D01*
X101873000Y-99378001D01*
X101873000Y-100621999D01*
X102349057Y-101771303D01*
X103228697Y-102650943D01*
X104378001Y-103127000D01*
X105621999Y-103127000D01*
X106771303Y-102650943D01*
X107650943Y-101771303D01*
X108127000Y-100621999D01*
X108127000Y-99378001D01*
X107650943Y-98228697D01*
X106771303Y-97349057D01*
X105621999Y-96873000D01*
X104378001Y-96873000D01*
X103228697Y-97349057D01*
X102349057Y-98228697D01*
X101873000Y-99378001D01*
X100402000Y-99378001D01*
X100402000Y-96710000D01*
X145299942Y-96710000D01*
X145391291Y-97169242D01*
X145651431Y-97558569D01*
X146040758Y-97818709D01*
X146384080Y-97887000D01*
X146615920Y-97887000D01*
X146959242Y-97818709D01*
X147348569Y-97558569D01*
X147608709Y-97169242D01*
X147673001Y-96846025D01*
X147673001Y-98347690D01*
X147658027Y-98272411D01*
X147585754Y-98164246D01*
X147477589Y-98091973D01*
X147350000Y-98066594D01*
X145650000Y-98066594D01*
X145522411Y-98091973D01*
X145414246Y-98164246D01*
X145341973Y-98272411D01*
X145316594Y-98400000D01*
X145316594Y-100100000D01*
X145341973Y-100227589D01*
X145414246Y-100335754D01*
X145522411Y-100408027D01*
X145650000Y-100433406D01*
X147350000Y-100433406D01*
X147477589Y-100408027D01*
X147585754Y-100335754D01*
X147658027Y-100227589D01*
X147673000Y-100152312D01*
X147673001Y-100918552D01*
X147656800Y-101000000D01*
X147720984Y-101322678D01*
X147720985Y-101322679D01*
X147903768Y-101596233D01*
X147972817Y-101642370D01*
X149107630Y-102777183D01*
X149153767Y-102846233D01*
X149427321Y-103029016D01*
X149668552Y-103077000D01*
X149668556Y-103077000D01*
X149750000Y-103093200D01*
X149831444Y-103077000D01*
X176668552Y-103077000D01*
X176750000Y-103093201D01*
X176831447Y-103077000D01*
X185668556Y-103077000D01*
X185750000Y-103093200D01*
X185831444Y-103077000D01*
X185831448Y-103077000D01*
X186072679Y-103029016D01*
X186346233Y-102846233D01*
X186392372Y-102777181D01*
X189791553Y-99378001D01*
X191873000Y-99378001D01*
X191873000Y-100621999D01*
X192349057Y-101771303D01*
X193228697Y-102650943D01*
X194378001Y-103127000D01*
X195621999Y-103127000D01*
X196771303Y-102650943D01*
X197650943Y-101771303D01*
X198127000Y-100621999D01*
X198127000Y-99378001D01*
X197650943Y-98228697D01*
X196771303Y-97349057D01*
X195621999Y-96873000D01*
X194378001Y-96873000D01*
X193228697Y-97349057D01*
X192349057Y-98228697D01*
X191873000Y-99378001D01*
X189791553Y-99378001D01*
X191527187Y-97642368D01*
X191596233Y-97596233D01*
X191642372Y-97527181D01*
X194527184Y-94642370D01*
X194596233Y-94596233D01*
X194779016Y-94322679D01*
X194827000Y-94081448D01*
X194827000Y-94081447D01*
X194843201Y-94000000D01*
X194827000Y-93918552D01*
X194827000Y-91581447D01*
X194843201Y-91500000D01*
X194827000Y-91418552D01*
X194827000Y-73581448D01*
X194843201Y-73500000D01*
X194779016Y-73177321D01*
X194642370Y-72972815D01*
X194642368Y-72972813D01*
X194596233Y-72903767D01*
X194527186Y-72857632D01*
X192392372Y-70722819D01*
X192346233Y-70653767D01*
X192072679Y-70470984D01*
X191831448Y-70423000D01*
X191831444Y-70423000D01*
X191750000Y-70406800D01*
X191668556Y-70423000D01*
X182592554Y-70423000D01*
X181327000Y-69157447D01*
X181327000Y-68797006D01*
X181363600Y-68797006D01*
X181491189Y-68771627D01*
X181599354Y-68699354D01*
X181671627Y-68591189D01*
X181697006Y-68463600D01*
X181697006Y-66736400D01*
X181671627Y-66608811D01*
X181599354Y-66500646D01*
X181491189Y-66428373D01*
X181363600Y-66402994D01*
X181129347Y-66402994D01*
X181274947Y-66342688D01*
X181706821Y-65948490D01*
X181770000Y-65813687D01*
X181833179Y-65948490D01*
X182265053Y-66342688D01*
X182587241Y-66476135D01*
X182575451Y-66478480D01*
X182181625Y-66741625D01*
X181918480Y-67135451D01*
X181826075Y-67600000D01*
X181918480Y-68064549D01*
X182181625Y-68458375D01*
X182575451Y-68721520D01*
X182922738Y-68790600D01*
X183157262Y-68790600D01*
X183504549Y-68721520D01*
X183898375Y-68458375D01*
X184161520Y-68064549D01*
X184253925Y-67600000D01*
X184161520Y-67135451D01*
X183898375Y-66741625D01*
X183504549Y-66478480D01*
X183492759Y-66476135D01*
X183814947Y-66342688D01*
X184246821Y-65948490D01*
X184310000Y-65813687D01*
X184373179Y-65948490D01*
X184805053Y-66342688D01*
X185127241Y-66476135D01*
X185115451Y-66478480D01*
X184721625Y-66741625D01*
X184458480Y-67135451D01*
X184366075Y-67600000D01*
X184458480Y-68064549D01*
X184721625Y-68458375D01*
X185115451Y-68721520D01*
X185179556Y-68734271D01*
X185254126Y-68845874D01*
X185403638Y-68945775D01*
X185580000Y-68980855D01*
X185756361Y-68945775D01*
X185905874Y-68845874D01*
X185980445Y-68734271D01*
X186044549Y-68721520D01*
X186438375Y-68458375D01*
X186701520Y-68064549D01*
X186793925Y-67600000D01*
X186701520Y-67135451D01*
X186438375Y-66741625D01*
X186044549Y-66478480D01*
X186032759Y-66476135D01*
X186354947Y-66342688D01*
X186786821Y-65948490D01*
X187034968Y-65419027D01*
X186914469Y-65187000D01*
X185707000Y-65187000D01*
X185707000Y-65207000D01*
X185453000Y-65207000D01*
X185453000Y-65187000D01*
X183167000Y-65187000D01*
X183167000Y-65207000D01*
X182913000Y-65207000D01*
X182913000Y-65187000D01*
X180627000Y-65187000D01*
X180627000Y-65207000D01*
X180373000Y-65207000D01*
X180373000Y-65187000D01*
X179165531Y-65187000D01*
X179045032Y-65419027D01*
X179293179Y-65948490D01*
X179725053Y-66342688D01*
X179870653Y-66402994D01*
X179636400Y-66402994D01*
X179508811Y-66428373D01*
X179400646Y-66500646D01*
X179328373Y-66608811D01*
X179302994Y-66736400D01*
X179302994Y-68463600D01*
X179328373Y-68591189D01*
X179400646Y-68699354D01*
X179508811Y-68771627D01*
X179636400Y-68797006D01*
X179673000Y-68797006D01*
X179673000Y-69418556D01*
X179656800Y-69500000D01*
X179673000Y-69581444D01*
X179673000Y-69581447D01*
X179720984Y-69822678D01*
X179903767Y-70096233D01*
X179972819Y-70142372D01*
X181607630Y-71777184D01*
X181653767Y-71846233D01*
X181927321Y-72029016D01*
X182168552Y-72077000D01*
X182168556Y-72077000D01*
X182250000Y-72093200D01*
X182331444Y-72077000D01*
X191407447Y-72077000D01*
X193173001Y-73842556D01*
X193173000Y-90673000D01*
X193168552Y-90673000D01*
X192927321Y-90720984D01*
X192653767Y-90903767D01*
X192470984Y-91177321D01*
X192406799Y-91500000D01*
X192470984Y-91822679D01*
X192653767Y-92096233D01*
X192927321Y-92279016D01*
X193168552Y-92327000D01*
X193173001Y-92327000D01*
X193173000Y-93657446D01*
X190875000Y-95955446D01*
X190277184Y-95357631D01*
X190072678Y-95220984D01*
X189750000Y-95156800D01*
X189427322Y-95220984D01*
X189153767Y-95403767D01*
X188970984Y-95677322D01*
X188906800Y-96000000D01*
X188970984Y-96322678D01*
X189107631Y-96527184D01*
X189705446Y-97125000D01*
X185407447Y-101423000D01*
X177577000Y-101423000D01*
X177577000Y-96668552D01*
X177529016Y-96427321D01*
X177346233Y-96153767D01*
X177072679Y-95970984D01*
X176750000Y-95906799D01*
X176427322Y-95970984D01*
X176153768Y-96153767D01*
X175970984Y-96427321D01*
X175923000Y-96668552D01*
X175923000Y-97397132D01*
X175923001Y-97397137D01*
X175923000Y-101423000D01*
X150092554Y-101423000D01*
X149327000Y-100657447D01*
X149327000Y-99481442D01*
X149343200Y-99399999D01*
X149340366Y-99385750D01*
X152115000Y-99385750D01*
X152115000Y-100076309D01*
X152211673Y-100309698D01*
X152390301Y-100488327D01*
X152623690Y-100585000D01*
X153314250Y-100585000D01*
X153473000Y-100426250D01*
X153473000Y-99227000D01*
X152273750Y-99227000D01*
X152115000Y-99385750D01*
X149340366Y-99385750D01*
X149327000Y-99318557D01*
X149327000Y-98123691D01*
X152115000Y-98123691D01*
X152115000Y-98814250D01*
X152273750Y-98973000D01*
X153473000Y-98973000D01*
X153473000Y-97773750D01*
X153727000Y-97773750D01*
X153727000Y-98973000D01*
X153747000Y-98973000D01*
X153747000Y-99227000D01*
X153727000Y-99227000D01*
X153727000Y-100426250D01*
X153885750Y-100585000D01*
X154576310Y-100585000D01*
X154809699Y-100488327D01*
X154988327Y-100309698D01*
X155085000Y-100076309D01*
X155085000Y-99639623D01*
X155291431Y-99948569D01*
X155680758Y-100208709D01*
X156024080Y-100277000D01*
X156255920Y-100277000D01*
X156599242Y-100208709D01*
X156988569Y-99948569D01*
X157248709Y-99559242D01*
X157340058Y-99100000D01*
X157248709Y-98640758D01*
X156988569Y-98251431D01*
X156702000Y-98059952D01*
X156702000Y-92826134D01*
X156866321Y-92661813D01*
X156977000Y-92394609D01*
X156977000Y-92105391D01*
X156866321Y-91838187D01*
X156661813Y-91633679D01*
X156394609Y-91523000D01*
X156105391Y-91523000D01*
X155838187Y-91633679D01*
X155633679Y-91838187D01*
X155523000Y-92105391D01*
X155523000Y-92394609D01*
X155633679Y-92661813D01*
X155798000Y-92826134D01*
X155798001Y-97967970D01*
X155680758Y-97991291D01*
X155291431Y-98251431D01*
X155085000Y-98560377D01*
X155085000Y-98123691D01*
X154988327Y-97890302D01*
X154809699Y-97711673D01*
X154576310Y-97615000D01*
X153885750Y-97615000D01*
X153727000Y-97773750D01*
X153473000Y-97773750D01*
X153314250Y-97615000D01*
X152623690Y-97615000D01*
X152390301Y-97711673D01*
X152211673Y-97890302D01*
X152115000Y-98123691D01*
X149327000Y-98123691D01*
X149327000Y-83055391D01*
X149773000Y-83055391D01*
X149773000Y-83344609D01*
X149883679Y-83611813D01*
X150048001Y-83776135D01*
X150048000Y-87855482D01*
X150039145Y-87900000D01*
X150048000Y-87944517D01*
X150074225Y-88076361D01*
X150174126Y-88225874D01*
X150211869Y-88251093D01*
X152848908Y-90888133D01*
X152874126Y-90925874D01*
X152911866Y-90951091D01*
X153023638Y-91025775D01*
X153200000Y-91060855D01*
X153244518Y-91052000D01*
X157712776Y-91052000D01*
X158228001Y-91567225D01*
X158228000Y-97989850D01*
X158220758Y-97991291D01*
X157831431Y-98251431D01*
X157571291Y-98640758D01*
X157479942Y-99100000D01*
X157571291Y-99559242D01*
X157831431Y-99948569D01*
X158220758Y-100208709D01*
X158564080Y-100277000D01*
X158795920Y-100277000D01*
X159139242Y-100208709D01*
X159528569Y-99948569D01*
X159788709Y-99559242D01*
X159880058Y-99100000D01*
X159788709Y-98640758D01*
X159528569Y-98251431D01*
X159139242Y-97991291D01*
X159132000Y-97989850D01*
X159132000Y-91424518D01*
X159140855Y-91380000D01*
X159105775Y-91203638D01*
X159054147Y-91126372D01*
X159005874Y-91054126D01*
X158968131Y-91028907D01*
X158251093Y-90311869D01*
X158225874Y-90274126D01*
X158076362Y-90174225D01*
X157944518Y-90148000D01*
X157900000Y-90139145D01*
X157855482Y-90148000D01*
X153387225Y-90148000D01*
X150952000Y-87712776D01*
X150952000Y-83776134D01*
X151116321Y-83611813D01*
X151227000Y-83344609D01*
X151227000Y-83055391D01*
X151116321Y-82788187D01*
X150911813Y-82583679D01*
X150644609Y-82473000D01*
X150355391Y-82473000D01*
X150088187Y-82583679D01*
X149883679Y-82788187D01*
X149773000Y-83055391D01*
X149327000Y-83055391D01*
X149327000Y-82342553D01*
X149542368Y-82127185D01*
X151342554Y-80327000D01*
X160831448Y-80327000D01*
X161072679Y-80279016D01*
X161346233Y-80096233D01*
X161529016Y-79822679D01*
X161593201Y-79500000D01*
X161529016Y-79177321D01*
X161346233Y-78903767D01*
X161072679Y-78720984D01*
X160831448Y-78673000D01*
X151081444Y-78673000D01*
X151000000Y-78656800D01*
X150918556Y-78673000D01*
X150918552Y-78673000D01*
X150677321Y-78720984D01*
X150403767Y-78903767D01*
X150357630Y-78972816D01*
X148372815Y-80957632D01*
X147972819Y-81357628D01*
X147903767Y-81403767D01*
X147720984Y-81677322D01*
X147673000Y-81918553D01*
X147673000Y-81918556D01*
X147656800Y-82000000D01*
X147673000Y-82081444D01*
X147673001Y-96573975D01*
X147608709Y-96250758D01*
X147348569Y-95861431D01*
X146959242Y-95601291D01*
X146615920Y-95533000D01*
X146384080Y-95533000D01*
X146040758Y-95601291D01*
X145651431Y-95861431D01*
X145391291Y-96250758D01*
X145299942Y-96710000D01*
X100402000Y-96710000D01*
X100402000Y-83700000D01*
X104366594Y-83700000D01*
X104366594Y-86300000D01*
X104391973Y-86427589D01*
X104464246Y-86535754D01*
X104572411Y-86608027D01*
X104700000Y-86633406D01*
X107300000Y-86633406D01*
X107427589Y-86608027D01*
X107535754Y-86535754D01*
X107608027Y-86427589D01*
X107628035Y-86327000D01*
X119050340Y-86327000D01*
X126849254Y-94125915D01*
X126923287Y-94236713D01*
X127362230Y-94530006D01*
X127749304Y-94607000D01*
X127749307Y-94607000D01*
X127879999Y-94632996D01*
X128010691Y-94607000D01*
X129630696Y-94607000D01*
X130017770Y-94530006D01*
X130456713Y-94236713D01*
X130750006Y-93797770D01*
X130852997Y-93280000D01*
X130750006Y-92762230D01*
X130507972Y-92400000D01*
X132966594Y-92400000D01*
X132966594Y-94000000D01*
X132991973Y-94127589D01*
X133064246Y-94235754D01*
X133172411Y-94308027D01*
X133300000Y-94333406D01*
X134900000Y-94333406D01*
X135027589Y-94308027D01*
X135135754Y-94235754D01*
X135154468Y-94207745D01*
X136771861Y-94207745D01*
X136845995Y-94453864D01*
X137383223Y-94646965D01*
X137953454Y-94619778D01*
X138354005Y-94453864D01*
X138428139Y-94207745D01*
X137600000Y-93379605D01*
X136771861Y-94207745D01*
X135154468Y-94207745D01*
X135208027Y-94127589D01*
X135233406Y-94000000D01*
X135233406Y-92983223D01*
X136153035Y-92983223D01*
X136180222Y-93553454D01*
X136346136Y-93954005D01*
X136592255Y-94028139D01*
X137420395Y-93200000D01*
X137779605Y-93200000D01*
X138607745Y-94028139D01*
X138853864Y-93954005D01*
X139046965Y-93416777D01*
X139040444Y-93280000D01*
X141050921Y-93280000D01*
X141138389Y-93719733D01*
X141387478Y-94092522D01*
X141760267Y-94341611D01*
X142089001Y-94407000D01*
X142310999Y-94407000D01*
X142639733Y-94341611D01*
X143012522Y-94092522D01*
X143261611Y-93719733D01*
X143349079Y-93280000D01*
X143261611Y-92840267D01*
X143012522Y-92467478D01*
X142639733Y-92218389D01*
X142310999Y-92153000D01*
X142089001Y-92153000D01*
X141760267Y-92218389D01*
X141387478Y-92467478D01*
X141138389Y-92840267D01*
X141050921Y-93280000D01*
X139040444Y-93280000D01*
X139019778Y-92846546D01*
X138853864Y-92445995D01*
X138607745Y-92371861D01*
X137779605Y-93200000D01*
X137420395Y-93200000D01*
X136592255Y-92371861D01*
X136346136Y-92445995D01*
X136153035Y-92983223D01*
X135233406Y-92983223D01*
X135233406Y-92400000D01*
X135208027Y-92272411D01*
X135154469Y-92192255D01*
X136771861Y-92192255D01*
X137600000Y-93020395D01*
X138428139Y-92192255D01*
X138354005Y-91946136D01*
X137816777Y-91753035D01*
X137246546Y-91780222D01*
X136845995Y-91946136D01*
X136771861Y-92192255D01*
X135154469Y-92192255D01*
X135135754Y-92164246D01*
X135027589Y-92091973D01*
X134900000Y-92066594D01*
X133300000Y-92066594D01*
X133172411Y-92091973D01*
X133064246Y-92164246D01*
X132991973Y-92272411D01*
X132966594Y-92400000D01*
X130507972Y-92400000D01*
X130456713Y-92323287D01*
X130037099Y-92042909D01*
X130355134Y-91892389D01*
X130731041Y-91477423D01*
X130891904Y-91089039D01*
X130769915Y-90867000D01*
X129627000Y-90867000D01*
X129627000Y-90887000D01*
X129373000Y-90887000D01*
X129373000Y-90867000D01*
X128230085Y-90867000D01*
X128108096Y-91089039D01*
X128268959Y-91477423D01*
X128644866Y-91892389D01*
X128772931Y-91953000D01*
X128429661Y-91953000D01*
X127216661Y-90740000D01*
X141050921Y-90740000D01*
X141138389Y-91179733D01*
X141387478Y-91552522D01*
X141760267Y-91801611D01*
X142089001Y-91867000D01*
X142310999Y-91867000D01*
X142639733Y-91801611D01*
X143012522Y-91552522D01*
X143261611Y-91179733D01*
X143349079Y-90740000D01*
X143261611Y-90300267D01*
X143012522Y-89927478D01*
X142639733Y-89678389D01*
X142310999Y-89613000D01*
X142089001Y-89613000D01*
X141760267Y-89678389D01*
X141387478Y-89927478D01*
X141138389Y-90300267D01*
X141050921Y-90740000D01*
X127216661Y-90740000D01*
X126867622Y-90390961D01*
X128108096Y-90390961D01*
X128230085Y-90613000D01*
X129373000Y-90613000D01*
X129373000Y-90593000D01*
X129627000Y-90593000D01*
X129627000Y-90613000D01*
X130769915Y-90613000D01*
X130891904Y-90390961D01*
X130731041Y-90002577D01*
X130355134Y-89587611D01*
X129849041Y-89348086D01*
X129627002Y-89469370D01*
X129627002Y-89323817D01*
X129939733Y-89261611D01*
X130312522Y-89012522D01*
X130561611Y-88639733D01*
X130649079Y-88200000D01*
X141050921Y-88200000D01*
X141138389Y-88639733D01*
X141387478Y-89012522D01*
X141760267Y-89261611D01*
X142089001Y-89327000D01*
X142310999Y-89327000D01*
X142639733Y-89261611D01*
X143012522Y-89012522D01*
X143261611Y-88639733D01*
X143349079Y-88200000D01*
X143261611Y-87760267D01*
X143012522Y-87387478D01*
X142639733Y-87138389D01*
X142310999Y-87073000D01*
X142089001Y-87073000D01*
X141760267Y-87138389D01*
X141387478Y-87387478D01*
X141138389Y-87760267D01*
X141050921Y-88200000D01*
X130649079Y-88200000D01*
X130561611Y-87760267D01*
X130312522Y-87387478D01*
X129939733Y-87138389D01*
X129610999Y-87073000D01*
X129389001Y-87073000D01*
X129060267Y-87138389D01*
X128687478Y-87387478D01*
X128438389Y-87760267D01*
X128350921Y-88200000D01*
X128438389Y-88639733D01*
X128687478Y-89012522D01*
X129060267Y-89261611D01*
X129372998Y-89323817D01*
X129372998Y-89469370D01*
X129150959Y-89348086D01*
X128644866Y-89587611D01*
X128268959Y-90002577D01*
X128108096Y-90390961D01*
X126867622Y-90390961D01*
X122136661Y-85660000D01*
X128350921Y-85660000D01*
X128438389Y-86099733D01*
X128687478Y-86472522D01*
X129060267Y-86721611D01*
X129389001Y-86787000D01*
X129610999Y-86787000D01*
X129939733Y-86721611D01*
X130312522Y-86472522D01*
X130561611Y-86099733D01*
X130649079Y-85660000D01*
X141050921Y-85660000D01*
X141138389Y-86099733D01*
X141387478Y-86472522D01*
X141760267Y-86721611D01*
X142089001Y-86787000D01*
X142310999Y-86787000D01*
X142639733Y-86721611D01*
X143012522Y-86472522D01*
X143261611Y-86099733D01*
X143349079Y-85660000D01*
X143261611Y-85220267D01*
X143012522Y-84847478D01*
X142639733Y-84598389D01*
X142310999Y-84533000D01*
X142089001Y-84533000D01*
X141760267Y-84598389D01*
X141387478Y-84847478D01*
X141138389Y-85220267D01*
X141050921Y-85660000D01*
X130649079Y-85660000D01*
X130561611Y-85220267D01*
X130312522Y-84847478D01*
X129939733Y-84598389D01*
X129610999Y-84533000D01*
X129389001Y-84533000D01*
X129060267Y-84598389D01*
X128687478Y-84847478D01*
X128438389Y-85220267D01*
X128350921Y-85660000D01*
X122136661Y-85660000D01*
X120630748Y-84154088D01*
X120556713Y-84043287D01*
X120117770Y-83749994D01*
X119730696Y-83673000D01*
X119730692Y-83673000D01*
X119600000Y-83647004D01*
X119469308Y-83673000D01*
X107628035Y-83673000D01*
X107608027Y-83572411D01*
X107535754Y-83464246D01*
X107427589Y-83391973D01*
X107300000Y-83366594D01*
X104700000Y-83366594D01*
X104572411Y-83391973D01*
X104464246Y-83464246D01*
X104391973Y-83572411D01*
X104366594Y-83700000D01*
X100402000Y-83700000D01*
X100402000Y-83120000D01*
X128350921Y-83120000D01*
X128438389Y-83559733D01*
X128687478Y-83932522D01*
X129060267Y-84181611D01*
X129389001Y-84247000D01*
X129610999Y-84247000D01*
X129939733Y-84181611D01*
X130312522Y-83932522D01*
X130561611Y-83559733D01*
X130649079Y-83120000D01*
X141050921Y-83120000D01*
X141138389Y-83559733D01*
X141387478Y-83932522D01*
X141760267Y-84181611D01*
X142089001Y-84247000D01*
X142310999Y-84247000D01*
X142639733Y-84181611D01*
X143012522Y-83932522D01*
X143261611Y-83559733D01*
X143349079Y-83120000D01*
X143261611Y-82680267D01*
X143012522Y-82307478D01*
X142639733Y-82058389D01*
X142310999Y-81993000D01*
X142089001Y-81993000D01*
X141760267Y-82058389D01*
X141387478Y-82307478D01*
X141138389Y-82680267D01*
X141050921Y-83120000D01*
X130649079Y-83120000D01*
X130561611Y-82680267D01*
X130312522Y-82307478D01*
X129939733Y-82058389D01*
X129610999Y-81993000D01*
X129389001Y-81993000D01*
X129060267Y-82058389D01*
X128687478Y-82307478D01*
X128438389Y-82680267D01*
X128350921Y-83120000D01*
X100402000Y-83120000D01*
X100402000Y-81369459D01*
X104810146Y-81369459D01*
X104945504Y-81667455D01*
X105663880Y-81944066D01*
X106433427Y-81924710D01*
X107054496Y-81667455D01*
X107189854Y-81369459D01*
X106000000Y-80179605D01*
X104810146Y-81369459D01*
X100402000Y-81369459D01*
X100402000Y-79663880D01*
X104055934Y-79663880D01*
X104075290Y-80433427D01*
X104332545Y-81054496D01*
X104630541Y-81189854D01*
X105820395Y-80000000D01*
X106179605Y-80000000D01*
X107369459Y-81189854D01*
X107667455Y-81054496D01*
X107850159Y-80580000D01*
X128350921Y-80580000D01*
X128438389Y-81019733D01*
X128687478Y-81392522D01*
X129060267Y-81641611D01*
X129389001Y-81707000D01*
X129610999Y-81707000D01*
X129939733Y-81641611D01*
X130312522Y-81392522D01*
X130561611Y-81019733D01*
X130649079Y-80580000D01*
X141050921Y-80580000D01*
X141138389Y-81019733D01*
X141387478Y-81392522D01*
X141760267Y-81641611D01*
X142089001Y-81707000D01*
X142310999Y-81707000D01*
X142639733Y-81641611D01*
X143012522Y-81392522D01*
X143261611Y-81019733D01*
X143349079Y-80580000D01*
X143261611Y-80140267D01*
X143012522Y-79767478D01*
X142639733Y-79518389D01*
X142310999Y-79453000D01*
X142089001Y-79453000D01*
X141760267Y-79518389D01*
X141387478Y-79767478D01*
X141138389Y-80140267D01*
X141050921Y-80580000D01*
X130649079Y-80580000D01*
X130561611Y-80140267D01*
X130312522Y-79767478D01*
X129939733Y-79518389D01*
X129610999Y-79453000D01*
X129389001Y-79453000D01*
X129060267Y-79518389D01*
X128687478Y-79767478D01*
X128438389Y-80140267D01*
X128350921Y-80580000D01*
X107850159Y-80580000D01*
X107944066Y-80336120D01*
X107924710Y-79566573D01*
X107667455Y-78945504D01*
X107369459Y-78810146D01*
X106179605Y-80000000D01*
X105820395Y-80000000D01*
X104630541Y-78810146D01*
X104332545Y-78945504D01*
X104055934Y-79663880D01*
X100402000Y-79663880D01*
X100402000Y-78630541D01*
X104810146Y-78630541D01*
X106000000Y-79820395D01*
X107189854Y-78630541D01*
X107054496Y-78332545D01*
X106336120Y-78055934D01*
X105566573Y-78075290D01*
X104945504Y-78332545D01*
X104810146Y-78630541D01*
X100402000Y-78630541D01*
X100402000Y-75785750D01*
X128065000Y-75785750D01*
X128065000Y-76426310D01*
X128161673Y-76659699D01*
X128340302Y-76838327D01*
X128573691Y-76935000D01*
X129214250Y-76935000D01*
X129372998Y-76776252D01*
X129372998Y-76916183D01*
X129060267Y-76978389D01*
X128687478Y-77227478D01*
X128438389Y-77600267D01*
X128350921Y-78040000D01*
X128438389Y-78479733D01*
X128687478Y-78852522D01*
X129060267Y-79101611D01*
X129389001Y-79167000D01*
X129610999Y-79167000D01*
X129939733Y-79101611D01*
X130312522Y-78852522D01*
X130561611Y-78479733D01*
X130649079Y-78040000D01*
X130561611Y-77600267D01*
X130312522Y-77227478D01*
X129939733Y-76978389D01*
X129627002Y-76916183D01*
X129627002Y-76776252D01*
X129785750Y-76935000D01*
X130426309Y-76935000D01*
X130659698Y-76838327D01*
X130838327Y-76659699D01*
X130935000Y-76426310D01*
X130935000Y-75785750D01*
X130776250Y-75627000D01*
X129627000Y-75627000D01*
X129627000Y-75647000D01*
X129373000Y-75647000D01*
X129373000Y-75627000D01*
X128223750Y-75627000D01*
X128065000Y-75785750D01*
X100402000Y-75785750D01*
X100402000Y-75500000D01*
X141050921Y-75500000D01*
X141138389Y-75939733D01*
X141387478Y-76312522D01*
X141760267Y-76561611D01*
X142089001Y-76627000D01*
X142310999Y-76627000D01*
X142625265Y-76564489D01*
X143648776Y-77588000D01*
X143253414Y-77588000D01*
X143012522Y-77227478D01*
X142639733Y-76978389D01*
X142310999Y-76913000D01*
X142089001Y-76913000D01*
X141760267Y-76978389D01*
X141387478Y-77227478D01*
X141138389Y-77600267D01*
X141050921Y-78040000D01*
X141138389Y-78479733D01*
X141387478Y-78852522D01*
X141760267Y-79101611D01*
X142089001Y-79167000D01*
X142310999Y-79167000D01*
X142639733Y-79101611D01*
X143012522Y-78852522D01*
X143253414Y-78492000D01*
X143852776Y-78492000D01*
X145798001Y-80437226D01*
X145798000Y-85662766D01*
X145678047Y-85782719D01*
X145640307Y-85807936D01*
X145615090Y-85845676D01*
X145615089Y-85845677D01*
X145540405Y-85957449D01*
X145505325Y-86133810D01*
X145514181Y-86178332D01*
X145514180Y-86807486D01*
X145349859Y-86971807D01*
X145239180Y-87239011D01*
X145239180Y-87528229D01*
X145349859Y-87795433D01*
X145554367Y-87999941D01*
X145821571Y-88110620D01*
X146110789Y-88110620D01*
X146377993Y-87999941D01*
X146582501Y-87795433D01*
X146693180Y-87528229D01*
X146693180Y-87251990D01*
X146944609Y-87251990D01*
X147211813Y-87141311D01*
X147416321Y-86936803D01*
X147527000Y-86669599D01*
X147527000Y-86380381D01*
X147416321Y-86113177D01*
X147252000Y-85948856D01*
X147252000Y-80144516D01*
X147260855Y-80099999D01*
X147240964Y-80000000D01*
X147225775Y-79923638D01*
X147125874Y-79774126D01*
X147088131Y-79748907D01*
X144944615Y-77605391D01*
X154272998Y-77605391D01*
X154272998Y-77894609D01*
X154383677Y-78161813D01*
X154588185Y-78366321D01*
X154855389Y-78477000D01*
X155144607Y-78477000D01*
X155411811Y-78366321D01*
X155576132Y-78202000D01*
X156455482Y-78202000D01*
X156500000Y-78210855D01*
X156544518Y-78202000D01*
X156676362Y-78175775D01*
X156825874Y-78075874D01*
X156851094Y-78038130D01*
X156937224Y-77952000D01*
X161812776Y-77952000D01*
X164298001Y-80437226D01*
X164298000Y-95382775D01*
X161685382Y-97995394D01*
X161679242Y-97991291D01*
X161335920Y-97923000D01*
X161104080Y-97923000D01*
X160760758Y-97991291D01*
X160371431Y-98251431D01*
X160111291Y-98640758D01*
X160019942Y-99100000D01*
X160111291Y-99559242D01*
X160371431Y-99948569D01*
X160760758Y-100208709D01*
X161104080Y-100277000D01*
X161335920Y-100277000D01*
X161679242Y-100208709D01*
X162068569Y-99948569D01*
X162328709Y-99559242D01*
X162420058Y-99100000D01*
X162328709Y-98640758D01*
X162324606Y-98634618D01*
X165038134Y-95921091D01*
X165075874Y-95895874D01*
X165175775Y-95746362D01*
X165202000Y-95614518D01*
X165202000Y-95614517D01*
X165210855Y-95570000D01*
X165202000Y-95525482D01*
X165202000Y-94380000D01*
X168399942Y-94380000D01*
X168491291Y-94839242D01*
X168751431Y-95228569D01*
X169140758Y-95488709D01*
X169484080Y-95557000D01*
X169715920Y-95557000D01*
X170059242Y-95488709D01*
X170448569Y-95228569D01*
X170708709Y-94839242D01*
X170800058Y-94380000D01*
X170708709Y-93920758D01*
X170448569Y-93531431D01*
X170059242Y-93271291D01*
X169715920Y-93203000D01*
X169484080Y-93203000D01*
X169140758Y-93271291D01*
X168751431Y-93531431D01*
X168491291Y-93920758D01*
X168399942Y-94380000D01*
X165202000Y-94380000D01*
X165202000Y-89585750D01*
X168115000Y-89585750D01*
X168115000Y-90276310D01*
X168211673Y-90509699D01*
X168390302Y-90688327D01*
X168623691Y-90785000D01*
X169060377Y-90785000D01*
X168751431Y-90991431D01*
X168491291Y-91380758D01*
X168399942Y-91840000D01*
X168491291Y-92299242D01*
X168751431Y-92688569D01*
X169140758Y-92948709D01*
X169484080Y-93017000D01*
X169715920Y-93017000D01*
X170059242Y-92948709D01*
X170448569Y-92688569D01*
X170708709Y-92299242D01*
X170800058Y-91840000D01*
X170708709Y-91380758D01*
X170448569Y-90991431D01*
X170139623Y-90785000D01*
X170576309Y-90785000D01*
X170809698Y-90688327D01*
X170988327Y-90509699D01*
X171085000Y-90276310D01*
X171085000Y-89585750D01*
X170926250Y-89427000D01*
X169727000Y-89427000D01*
X169727000Y-89447000D01*
X169473000Y-89447000D01*
X169473000Y-89427000D01*
X168273750Y-89427000D01*
X168115000Y-89585750D01*
X165202000Y-89585750D01*
X165202000Y-88323690D01*
X168115000Y-88323690D01*
X168115000Y-89014250D01*
X168273750Y-89173000D01*
X169473000Y-89173000D01*
X169473000Y-87973750D01*
X169727000Y-87973750D01*
X169727000Y-89173000D01*
X170926250Y-89173000D01*
X171085000Y-89014250D01*
X171085000Y-88323690D01*
X170988327Y-88090301D01*
X170809698Y-87911673D01*
X170576309Y-87815000D01*
X169885750Y-87815000D01*
X169727000Y-87973750D01*
X169473000Y-87973750D01*
X169314250Y-87815000D01*
X168623691Y-87815000D01*
X168390302Y-87911673D01*
X168211673Y-88090301D01*
X168115000Y-88323690D01*
X165202000Y-88323690D01*
X165202000Y-80591224D01*
X175848918Y-91238143D01*
X175874136Y-91275884D01*
X176023648Y-91375785D01*
X176155492Y-91402010D01*
X176155493Y-91402010D01*
X176200009Y-91410865D01*
X176244526Y-91402010D01*
X179262786Y-91402010D01*
X179398908Y-91538133D01*
X179424126Y-91575874D01*
X179461866Y-91601091D01*
X179573638Y-91675775D01*
X179750000Y-91710855D01*
X179794518Y-91702000D01*
X180673866Y-91702000D01*
X180838187Y-91866321D01*
X181105391Y-91977000D01*
X181394609Y-91977000D01*
X181661813Y-91866321D01*
X181866321Y-91661813D01*
X181977000Y-91394609D01*
X181977000Y-91105391D01*
X181866321Y-90838187D01*
X181661813Y-90633679D01*
X181394609Y-90523000D01*
X181105391Y-90523000D01*
X180977000Y-90576181D01*
X180977000Y-90355391D01*
X180866321Y-90088187D01*
X180661813Y-89883679D01*
X180394609Y-89773000D01*
X180105391Y-89773000D01*
X179838187Y-89883679D01*
X179673866Y-90048000D01*
X176687225Y-90048000D01*
X162851093Y-76211869D01*
X162825874Y-76174126D01*
X162676362Y-76074225D01*
X162544518Y-76048000D01*
X162500000Y-76039145D01*
X162455482Y-76048000D01*
X157703228Y-76048000D01*
X157616321Y-75838187D01*
X157411813Y-75633679D01*
X157144609Y-75523000D01*
X156855391Y-75523000D01*
X156588187Y-75633679D01*
X156383679Y-75838187D01*
X156273000Y-76105391D01*
X156273000Y-76312252D01*
X156153949Y-76262940D01*
X155864731Y-76262940D01*
X155597527Y-76373619D01*
X155393019Y-76578127D01*
X155282340Y-76845331D01*
X155282340Y-77080051D01*
X155144607Y-77023000D01*
X154855389Y-77023000D01*
X154588185Y-77133679D01*
X154383677Y-77338187D01*
X154272998Y-77605391D01*
X144944615Y-77605391D01*
X143264489Y-75925265D01*
X143349079Y-75500000D01*
X143261611Y-75060267D01*
X143012522Y-74687478D01*
X142639733Y-74438389D01*
X142310999Y-74373000D01*
X142089001Y-74373000D01*
X141760267Y-74438389D01*
X141387478Y-74687478D01*
X141138389Y-75060267D01*
X141050921Y-75500000D01*
X100402000Y-75500000D01*
X100402000Y-74573690D01*
X128065000Y-74573690D01*
X128065000Y-75214250D01*
X128223750Y-75373000D01*
X129373000Y-75373000D01*
X129373000Y-74223750D01*
X129627000Y-74223750D01*
X129627000Y-75373000D01*
X130776250Y-75373000D01*
X130935000Y-75214250D01*
X130935000Y-74573690D01*
X130838327Y-74340301D01*
X130659698Y-74161673D01*
X130426309Y-74065000D01*
X129785750Y-74065000D01*
X129627000Y-74223750D01*
X129373000Y-74223750D01*
X129214250Y-74065000D01*
X128573691Y-74065000D01*
X128340302Y-74161673D01*
X128161673Y-74340301D01*
X128065000Y-74573690D01*
X100402000Y-74573690D01*
X100402000Y-64148001D01*
X101873000Y-64148001D01*
X101873000Y-65391999D01*
X102349057Y-66541303D01*
X103228697Y-67420943D01*
X104378001Y-67897000D01*
X105621999Y-67897000D01*
X106771303Y-67420943D01*
X107650943Y-66541303D01*
X108127000Y-65391999D01*
X108127000Y-64700000D01*
X130616594Y-64700000D01*
X130616594Y-67300000D01*
X130641973Y-67427589D01*
X130714246Y-67535754D01*
X130822411Y-67608027D01*
X130950000Y-67633406D01*
X133550000Y-67633406D01*
X133677589Y-67608027D01*
X133785754Y-67535754D01*
X133858027Y-67427589D01*
X133883406Y-67300000D01*
X133883406Y-65676370D01*
X135623000Y-65676370D01*
X135623000Y-66323630D01*
X135870696Y-66921622D01*
X136328378Y-67379304D01*
X136926370Y-67627000D01*
X137573630Y-67627000D01*
X138171622Y-67379304D01*
X138629304Y-66921622D01*
X138877000Y-66323630D01*
X138877000Y-65676370D01*
X140623000Y-65676370D01*
X140623000Y-66323630D01*
X140870696Y-66921622D01*
X141328378Y-67379304D01*
X141926370Y-67627000D01*
X142573630Y-67627000D01*
X143171622Y-67379304D01*
X143629304Y-66921622D01*
X143877000Y-66323630D01*
X143877000Y-65676370D01*
X145623000Y-65676370D01*
X145623000Y-66323630D01*
X145870696Y-66921622D01*
X146328378Y-67379304D01*
X146926370Y-67627000D01*
X147573630Y-67627000D01*
X148171622Y-67379304D01*
X148181467Y-67369459D01*
X151060146Y-67369459D01*
X151195504Y-67667455D01*
X151913880Y-67944066D01*
X152683427Y-67924710D01*
X153304496Y-67667455D01*
X153439854Y-67369459D01*
X152250000Y-66179605D01*
X151060146Y-67369459D01*
X148181467Y-67369459D01*
X148629304Y-66921622D01*
X148877000Y-66323630D01*
X148877000Y-65676370D01*
X148871827Y-65663880D01*
X150305934Y-65663880D01*
X150325290Y-66433427D01*
X150582545Y-67054496D01*
X150880541Y-67189854D01*
X152070395Y-66000000D01*
X152429605Y-66000000D01*
X153619459Y-67189854D01*
X153917455Y-67054496D01*
X154194066Y-66336120D01*
X154177472Y-65676370D01*
X155623000Y-65676370D01*
X155623000Y-66323630D01*
X155870696Y-66921622D01*
X156328378Y-67379304D01*
X156926370Y-67627000D01*
X157573630Y-67627000D01*
X158171622Y-67379304D01*
X158629304Y-66921622D01*
X158823827Y-66452000D01*
X159297476Y-66452000D01*
X170048000Y-77202525D01*
X170048001Y-80403644D01*
X169849467Y-80485879D01*
X169644959Y-80690387D01*
X169534280Y-80957591D01*
X169534280Y-81246809D01*
X169644959Y-81514013D01*
X169849467Y-81718521D01*
X169999942Y-81780850D01*
X169912742Y-81991371D01*
X169912742Y-82280589D01*
X170023421Y-82547793D01*
X170227929Y-82752301D01*
X170495133Y-82862980D01*
X170784351Y-82862980D01*
X171051555Y-82752301D01*
X171256063Y-82547793D01*
X171366742Y-82280589D01*
X171366742Y-82060168D01*
X171465516Y-81912343D01*
X171491741Y-81780499D01*
X171500596Y-81735982D01*
X171491741Y-81691464D01*
X171491741Y-78295717D01*
X180773000Y-78295717D01*
X180773000Y-78704283D01*
X180929352Y-79081749D01*
X181218251Y-79370648D01*
X181595717Y-79527000D01*
X182004283Y-79527000D01*
X182381749Y-79370648D01*
X182670648Y-79081749D01*
X182827000Y-78704283D01*
X182827000Y-78295717D01*
X182670648Y-77918251D01*
X182552397Y-77800000D01*
X183266594Y-77800000D01*
X183266594Y-79200000D01*
X183291973Y-79327589D01*
X183364246Y-79435754D01*
X183472411Y-79508027D01*
X183600000Y-79533406D01*
X185000000Y-79533406D01*
X185127589Y-79508027D01*
X185235754Y-79435754D01*
X185308027Y-79327589D01*
X185333406Y-79200000D01*
X185333406Y-77800000D01*
X185308027Y-77672411D01*
X185235754Y-77564246D01*
X185127589Y-77491973D01*
X185000000Y-77466594D01*
X183600000Y-77466594D01*
X183472411Y-77491973D01*
X183364246Y-77564246D01*
X183291973Y-77672411D01*
X183266594Y-77800000D01*
X182552397Y-77800000D01*
X182381749Y-77629352D01*
X182004283Y-77473000D01*
X181595717Y-77473000D01*
X181218251Y-77629352D01*
X180929352Y-77918251D01*
X180773000Y-78295717D01*
X171491741Y-78295717D01*
X171491741Y-77303970D01*
X175695635Y-77303970D01*
X175855418Y-77622739D01*
X176646187Y-77932723D01*
X177495387Y-77916497D01*
X178204582Y-77622739D01*
X178364365Y-77303970D01*
X187735635Y-77303970D01*
X187895418Y-77622739D01*
X188686187Y-77932723D01*
X189535387Y-77916497D01*
X190244582Y-77622739D01*
X190404365Y-77303970D01*
X189070000Y-75969605D01*
X187735635Y-77303970D01*
X178364365Y-77303970D01*
X177030000Y-75969605D01*
X175695635Y-77303970D01*
X171491741Y-77303970D01*
X171491741Y-76812159D01*
X171500596Y-76767641D01*
X171465516Y-76591279D01*
X171390832Y-76479507D01*
X171365615Y-76441767D01*
X171327875Y-76416550D01*
X170317512Y-75406187D01*
X174887277Y-75406187D01*
X174903503Y-76255387D01*
X175197261Y-76964582D01*
X175516030Y-77124365D01*
X176850395Y-75790000D01*
X177209605Y-75790000D01*
X178543970Y-77124365D01*
X178862739Y-76964582D01*
X179172723Y-76173813D01*
X179156497Y-75324613D01*
X179061686Y-75095717D01*
X180773000Y-75095717D01*
X180773000Y-75504283D01*
X180929352Y-75881749D01*
X181218251Y-76170648D01*
X181595717Y-76327000D01*
X182004283Y-76327000D01*
X182225726Y-76235275D01*
X183544331Y-76235275D01*
X183606169Y-76471042D01*
X184107122Y-76647419D01*
X184637440Y-76618664D01*
X184993831Y-76471042D01*
X185055669Y-76235275D01*
X184300000Y-75479605D01*
X183544331Y-76235275D01*
X182225726Y-76235275D01*
X182381749Y-76170648D01*
X182670648Y-75881749D01*
X182827000Y-75504283D01*
X182827000Y-75107122D01*
X182952581Y-75107122D01*
X182981336Y-75637440D01*
X183128958Y-75993831D01*
X183364725Y-76055669D01*
X184120395Y-75300000D01*
X184479605Y-75300000D01*
X185235275Y-76055669D01*
X185471042Y-75993831D01*
X185647419Y-75492878D01*
X185642719Y-75406187D01*
X186927277Y-75406187D01*
X186943503Y-76255387D01*
X187237261Y-76964582D01*
X187556030Y-77124365D01*
X188890395Y-75790000D01*
X189249605Y-75790000D01*
X190583970Y-77124365D01*
X190902739Y-76964582D01*
X191212723Y-76173813D01*
X191196497Y-75324613D01*
X190902739Y-74615418D01*
X190583970Y-74455635D01*
X189249605Y-75790000D01*
X188890395Y-75790000D01*
X187556030Y-74455635D01*
X187237261Y-74615418D01*
X186927277Y-75406187D01*
X185642719Y-75406187D01*
X185618664Y-74962560D01*
X185471042Y-74606169D01*
X185235275Y-74544331D01*
X184479605Y-75300000D01*
X184120395Y-75300000D01*
X183364725Y-74544331D01*
X183128958Y-74606169D01*
X182952581Y-75107122D01*
X182827000Y-75107122D01*
X182827000Y-75095717D01*
X182670648Y-74718251D01*
X182381749Y-74429352D01*
X182225727Y-74364725D01*
X183544331Y-74364725D01*
X184300000Y-75120395D01*
X185055669Y-74364725D01*
X185032406Y-74276030D01*
X187735635Y-74276030D01*
X189070000Y-75610395D01*
X190404365Y-74276030D01*
X190244582Y-73957261D01*
X189453813Y-73647277D01*
X188604613Y-73663503D01*
X187895418Y-73957261D01*
X187735635Y-74276030D01*
X185032406Y-74276030D01*
X184993831Y-74128958D01*
X184492878Y-73952581D01*
X183962560Y-73981336D01*
X183606169Y-74128958D01*
X183544331Y-74364725D01*
X182225727Y-74364725D01*
X182004283Y-74273000D01*
X181595717Y-74273000D01*
X181218251Y-74429352D01*
X180929352Y-74718251D01*
X180773000Y-75095717D01*
X179061686Y-75095717D01*
X178862739Y-74615418D01*
X178543970Y-74455635D01*
X177209605Y-75790000D01*
X176850395Y-75790000D01*
X175516030Y-74455635D01*
X175197261Y-74615418D01*
X174887277Y-75406187D01*
X170317512Y-75406187D01*
X169187355Y-74276030D01*
X175695635Y-74276030D01*
X177030000Y-75610395D01*
X178364365Y-74276030D01*
X178204582Y-73957261D01*
X177413813Y-73647277D01*
X176564613Y-73663503D01*
X175855418Y-73957261D01*
X175695635Y-74276030D01*
X169187355Y-74276030D01*
X162702000Y-67790676D01*
X162702000Y-67573827D01*
X163171622Y-67379304D01*
X163629304Y-66921622D01*
X163877000Y-66323630D01*
X163877000Y-65676370D01*
X163629304Y-65078378D01*
X163251899Y-64700973D01*
X179045032Y-64700973D01*
X179165531Y-64933000D01*
X180373000Y-64933000D01*
X180373000Y-63726183D01*
X180627000Y-63726183D01*
X180627000Y-64933000D01*
X182913000Y-64933000D01*
X182913000Y-63726183D01*
X183167000Y-63726183D01*
X183167000Y-64933000D01*
X185453000Y-64933000D01*
X185453000Y-63726183D01*
X185707000Y-63726183D01*
X185707000Y-64933000D01*
X186914469Y-64933000D01*
X187034968Y-64700973D01*
X186883599Y-64378001D01*
X191873000Y-64378001D01*
X191873000Y-65621999D01*
X192349057Y-66771303D01*
X193228697Y-67650943D01*
X194378001Y-68127000D01*
X195621999Y-68127000D01*
X196771303Y-67650943D01*
X197650943Y-66771303D01*
X198127000Y-65621999D01*
X198127000Y-64378001D01*
X197650943Y-63228697D01*
X196771303Y-62349057D01*
X195621999Y-61873000D01*
X194378001Y-61873000D01*
X193228697Y-62349057D01*
X192349057Y-63228697D01*
X191873000Y-64378001D01*
X186883599Y-64378001D01*
X186786821Y-64171510D01*
X186354947Y-63777312D01*
X185939026Y-63605042D01*
X185707000Y-63726183D01*
X185453000Y-63726183D01*
X185220974Y-63605042D01*
X184805053Y-63777312D01*
X184373179Y-64171510D01*
X184310000Y-64306313D01*
X184246821Y-64171510D01*
X183814947Y-63777312D01*
X183399026Y-63605042D01*
X183167000Y-63726183D01*
X182913000Y-63726183D01*
X182680974Y-63605042D01*
X182265053Y-63777312D01*
X181833179Y-64171510D01*
X181770000Y-64306313D01*
X181706821Y-64171510D01*
X181274947Y-63777312D01*
X180859026Y-63605042D01*
X180627000Y-63726183D01*
X180373000Y-63726183D01*
X180140974Y-63605042D01*
X179725053Y-63777312D01*
X179293179Y-64171510D01*
X179045032Y-64700973D01*
X163251899Y-64700973D01*
X163171622Y-64620696D01*
X162573630Y-64373000D01*
X161926370Y-64373000D01*
X161328378Y-64620696D01*
X160870696Y-65078378D01*
X160623000Y-65676370D01*
X160623000Y-66323630D01*
X160747059Y-66623135D01*
X159835793Y-65711869D01*
X159810574Y-65674126D01*
X159661062Y-65574225D01*
X159529218Y-65548000D01*
X159484700Y-65539145D01*
X159440182Y-65548000D01*
X158823827Y-65548000D01*
X158629304Y-65078378D01*
X158171622Y-64620696D01*
X157573630Y-64373000D01*
X156926370Y-64373000D01*
X156328378Y-64620696D01*
X155870696Y-65078378D01*
X155623000Y-65676370D01*
X154177472Y-65676370D01*
X154174710Y-65566573D01*
X153917455Y-64945504D01*
X153619459Y-64810146D01*
X152429605Y-66000000D01*
X152070395Y-66000000D01*
X150880541Y-64810146D01*
X150582545Y-64945504D01*
X150305934Y-65663880D01*
X148871827Y-65663880D01*
X148629304Y-65078378D01*
X148181467Y-64630541D01*
X151060146Y-64630541D01*
X152250000Y-65820395D01*
X153439854Y-64630541D01*
X153304496Y-64332545D01*
X152586120Y-64055934D01*
X151816573Y-64075290D01*
X151195504Y-64332545D01*
X151060146Y-64630541D01*
X148181467Y-64630541D01*
X148171622Y-64620696D01*
X147573630Y-64373000D01*
X146926370Y-64373000D01*
X146328378Y-64620696D01*
X145870696Y-65078378D01*
X145623000Y-65676370D01*
X143877000Y-65676370D01*
X143629304Y-65078378D01*
X143171622Y-64620696D01*
X142573630Y-64373000D01*
X141926370Y-64373000D01*
X141328378Y-64620696D01*
X140870696Y-65078378D01*
X140623000Y-65676370D01*
X138877000Y-65676370D01*
X138629304Y-65078378D01*
X138171622Y-64620696D01*
X137573630Y-64373000D01*
X136926370Y-64373000D01*
X136328378Y-64620696D01*
X135870696Y-65078378D01*
X135623000Y-65676370D01*
X133883406Y-65676370D01*
X133883406Y-64700000D01*
X133858027Y-64572411D01*
X133785754Y-64464246D01*
X133677589Y-64391973D01*
X133550000Y-64366594D01*
X130950000Y-64366594D01*
X130822411Y-64391973D01*
X130714246Y-64464246D01*
X130641973Y-64572411D01*
X130616594Y-64700000D01*
X108127000Y-64700000D01*
X108127000Y-64148001D01*
X107650943Y-62998697D01*
X106771303Y-62119057D01*
X105621999Y-61643000D01*
X104378001Y-61643000D01*
X103228697Y-62119057D01*
X102349057Y-62998697D01*
X101873000Y-64148001D01*
X100402000Y-64148001D01*
X100402000Y-60402000D01*
X199598000Y-60402000D01*
X199598001Y-104598000D01*
M02*
