G04 #@! TF.GenerationSoftware,KiCad,Pcbnew,(5.0.0-rc2-dev-647-g0f5eb421b)*
G04 #@! TF.CreationDate,2018-05-07T01:31:26+02:00*
G04 #@! TF.ProjectId,monochromator,6D6F6E6F6368726F6D61746F722E6B69,rev?*
G04 #@! TF.SameCoordinates,Original*
G04 #@! TF.FileFunction,Soldermask,Top*
G04 #@! TF.FilePolarity,Negative*
%FSLAX46Y46*%
G04 Gerber Fmt 4.6, Leading zero omitted, Abs format (unit mm)*
G04 Created by KiCad (PCBNEW (5.0.0-rc2-dev-647-g0f5eb421b)) date 05/07/18 01:31:26*
%MOMM*%
%LPD*%
G01*
G04 APERTURE LIST*
%ADD10R,2.100000X2.100000*%
%ADD11O,2.100000X2.100000*%
%ADD12R,1.050000X1.460000*%
%ADD13C,3.400000*%
%ADD14C,1.800000*%
%ADD15R,1.800000X1.800000*%
%ADD16R,1.800000X1.520000*%
%ADD17R,2.127200X2.127200*%
%ADD18O,2.127200X2.127200*%
%ADD19R,0.650000X1.700000*%
%ADD20R,1.700000X0.650000*%
%ADD21R,2.000000X2.000000*%
%ADD22O,2.000000X2.000000*%
%ADD23R,2.580000X2.000000*%
%ADD24R,1.520000X1.800000*%
%ADD25O,0.700000X1.250000*%
%ADD26O,1.250000X0.700000*%
%ADD27R,3.750000X3.750000*%
%ADD28C,2.000000*%
%ADD29R,3.000000X3.000000*%
%ADD30C,3.000000*%
%ADD31R,2.200000X1.620000*%
%ADD32R,2.460000X3.000000*%
%ADD33R,2.900000X2.200000*%
%ADD34R,2.200000X2.900000*%
%ADD35R,1.900000X2.600000*%
%ADD36C,6.000000*%
%ADD37R,1.960000X1.050000*%
G04 APERTURE END LIST*
D10*
X153600000Y-99100000D03*
D11*
X156140000Y-99100000D03*
X158680000Y-99100000D03*
X161220000Y-99100000D03*
D12*
X183700000Y-81900000D03*
X182750000Y-81900000D03*
X181800000Y-81900000D03*
X181800000Y-84100000D03*
X183700000Y-84100000D03*
X182750000Y-84100000D03*
D13*
X189070000Y-75790000D03*
D14*
X184300000Y-75300000D03*
X181800000Y-75300000D03*
D15*
X184300000Y-78500000D03*
D13*
X177030000Y-75790000D03*
D14*
X181800000Y-78500000D03*
D10*
X169600000Y-89300000D03*
D11*
X169600000Y-91840000D03*
X169600000Y-94380000D03*
D16*
X185750000Y-83880000D03*
X185750000Y-82120000D03*
D17*
X180500000Y-67600000D03*
D18*
X180500000Y-65060000D03*
X183040000Y-67600000D03*
X183040000Y-65060000D03*
X185580000Y-67600000D03*
X185580000Y-65060000D03*
D16*
X169750000Y-68630000D03*
X169750000Y-66870000D03*
X172250000Y-66870000D03*
X172250000Y-68630000D03*
X169750000Y-64380000D03*
X169750000Y-62620000D03*
X172250000Y-64380000D03*
X172250000Y-62620000D03*
D19*
X154178000Y-90810000D03*
X154678000Y-90810000D03*
X155178000Y-90810000D03*
X155678000Y-90810000D03*
X156178000Y-90810000D03*
X156678000Y-90810000D03*
X157178000Y-90810000D03*
X157678000Y-90810000D03*
X158178000Y-90810000D03*
X158678000Y-90810000D03*
X159178000Y-90810000D03*
X159678000Y-90810000D03*
D20*
X161278000Y-89210000D03*
X161278000Y-88710000D03*
X161278000Y-88210000D03*
X161278000Y-87710000D03*
X161278000Y-87210000D03*
X161278000Y-86710000D03*
X161278000Y-86210000D03*
X161278000Y-85710000D03*
X161278000Y-85210000D03*
X161278000Y-84710000D03*
X161278000Y-84210000D03*
X161278000Y-83710000D03*
D19*
X159678000Y-82110000D03*
X159178000Y-82110000D03*
X158678000Y-82110000D03*
X158178000Y-82110000D03*
X157678000Y-82110000D03*
X157178000Y-82110000D03*
X156678000Y-82110000D03*
X156178000Y-82110000D03*
X155678000Y-82110000D03*
X155178000Y-82110000D03*
X154678000Y-82110000D03*
X154178000Y-82110000D03*
D20*
X152578000Y-83710000D03*
X152578000Y-84210000D03*
X152578000Y-84710000D03*
X152578000Y-85210000D03*
X152578000Y-85710000D03*
X152578000Y-86210000D03*
X152578000Y-86710000D03*
X152578000Y-87210000D03*
X152578000Y-87710000D03*
X152578000Y-88210000D03*
X152578000Y-88710000D03*
X152578000Y-89210000D03*
D21*
X129500000Y-75500000D03*
D22*
X142200000Y-93280000D03*
X129500000Y-78040000D03*
X142200000Y-90740000D03*
X129500000Y-80580000D03*
X142200000Y-88200000D03*
X129500000Y-83120000D03*
X142200000Y-85660000D03*
X129500000Y-85660000D03*
X142200000Y-83120000D03*
X129500000Y-88200000D03*
X142200000Y-80580000D03*
X129500000Y-90740000D03*
X142200000Y-78040000D03*
X129500000Y-93280000D03*
X142200000Y-75500000D03*
D23*
X178590000Y-99200000D03*
X169410000Y-99200000D03*
D10*
X146500000Y-99250000D03*
D11*
X146500000Y-96710000D03*
D24*
X173120000Y-96000000D03*
X174880000Y-96000000D03*
D16*
X186500000Y-97630000D03*
X186500000Y-95870000D03*
D25*
X184000000Y-92950000D03*
X184500000Y-92950000D03*
X185000000Y-92950000D03*
X185500000Y-92950000D03*
X186000000Y-92950000D03*
X186500000Y-92950000D03*
X187000000Y-92950000D03*
D26*
X187950000Y-92000000D03*
X187950000Y-91500000D03*
X187950000Y-91000000D03*
X187950000Y-90500000D03*
X187950000Y-90000000D03*
X187950000Y-89500000D03*
X187950000Y-89000000D03*
D25*
X187000000Y-88050000D03*
X186500000Y-88050000D03*
X186000000Y-88050000D03*
X185500000Y-88050000D03*
X185000000Y-88050000D03*
X184500000Y-88050000D03*
X184000000Y-88050000D03*
D26*
X183050000Y-89000000D03*
X183050000Y-89500000D03*
X183050000Y-90000000D03*
X183050000Y-90500000D03*
X183050000Y-91000000D03*
X183050000Y-91500000D03*
X183050000Y-92000000D03*
D27*
X185500000Y-90500000D03*
D24*
X191880000Y-91500000D03*
X190120000Y-91500000D03*
X141620000Y-96750000D03*
X143380000Y-96750000D03*
D21*
X134100000Y-93200000D03*
D28*
X137600000Y-93200000D03*
D29*
X106000000Y-85000000D03*
D30*
X106000000Y-80000000D03*
D29*
X132250000Y-66000000D03*
D30*
X137250000Y-66000000D03*
X142250000Y-66000000D03*
X147250000Y-66000000D03*
X152250000Y-66000000D03*
X157250000Y-66000000D03*
X162250000Y-66000000D03*
D24*
X148174000Y-89254000D03*
X149934000Y-89254000D03*
X116180000Y-92100000D03*
X114420000Y-92100000D03*
D16*
X151500000Y-79120000D03*
X151500000Y-80880000D03*
D24*
X161870000Y-81750000D03*
X163630000Y-81750000D03*
D16*
X154200000Y-95130000D03*
X154200000Y-93370000D03*
D24*
X167620000Y-72250000D03*
X169380000Y-72250000D03*
D16*
X158200000Y-95130000D03*
X158200000Y-93370000D03*
D24*
X151630000Y-72250000D03*
X149870000Y-72250000D03*
D31*
X120100000Y-100630000D03*
X120100000Y-97770000D03*
X122700000Y-97770000D03*
X122700000Y-100630000D03*
D32*
X113870000Y-84000000D03*
X120130000Y-84000000D03*
D33*
X106900000Y-91500000D03*
X110900000Y-91500000D03*
D34*
X120100000Y-91100000D03*
X120100000Y-95100000D03*
D35*
X110400000Y-97800000D03*
X116800000Y-97800000D03*
D36*
X105000000Y-100000000D03*
X105000000Y-64770000D03*
X195000000Y-100000000D03*
X195000000Y-65000000D03*
D37*
X116659164Y-89856584D03*
X116659164Y-88906584D03*
X116659164Y-87956584D03*
X113959164Y-87956584D03*
X113959164Y-89856584D03*
X113959164Y-88906584D03*
D16*
X123100000Y-93980000D03*
X123100000Y-92220000D03*
X125200000Y-93980000D03*
X125200000Y-92220000D03*
D24*
X155630000Y-72250000D03*
X153870000Y-72250000D03*
X165380000Y-72250000D03*
X163620000Y-72250000D03*
M02*
